<svg width="584" height="447" viewBox="0 0 584 447" fill="none" xmlns="http://www.w3.org/2000/svg">
<path d="M403.569 413.732C403.569 430.448 313.228 444 201.785 444C90.341 444 0 430.448 0 413.732C0 401.899 45.2844 391.647 111.281 386.674C138.496 384.617 169.245 383.465 201.785 383.465C215.161 383.465 228.232 383.66 240.872 384.031C333.609 386.765 403.569 399.021 403.569 413.732Z" fill="#3F3D56"/>
<path opacity="0.1" d="M175.748 419.916C218.527 419.916 253.207 415.69 253.207 410.478C253.207 405.265 218.527 401.039 175.748 401.039C132.968 401.039 98.2886 405.265 98.2886 410.478C98.2886 415.69 132.968 419.916 175.748 419.916Z" fill="#09093D"/>
<path d="M175.422 417.312C215.865 417.312 248.651 382.341 248.651 339.202C248.651 296.063 215.865 261.092 175.422 261.092C134.98 261.092 102.194 296.063 102.194 339.202C102.194 382.341 134.98 417.312 175.422 417.312Z" fill="#3F3D56"/>
<path d="M198.53 385.417H152.966V427.076H198.53V385.417Z" fill="#F53A3A"/>
<path d="M258.089 395.507L255.485 409.827L272.409 412.431L283.475 405.922L282.824 395.507H258.089Z" fill="#4B4DED"/>
<path d="M172.819 126.677C172.819 126.677 171.517 141.649 168.262 142.299C165.008 142.95 175.422 168.987 175.422 168.987H191.044L203.412 165.732L197.554 151.412C197.554 151.412 189.743 140.998 195.601 132.536C201.459 124.074 172.819 126.677 172.819 126.677Z" fill="#8F8F8F"/>
<path opacity="0.1" d="M172.819 126.677C172.819 126.677 171.517 141.649 168.262 142.299C165.008 142.95 175.422 168.987 175.422 168.987H191.044L203.412 165.732L197.554 151.412C197.554 151.412 189.743 140.998 195.601 132.536C201.459 124.074 172.819 126.677 172.819 126.677Z" fill="#09093D"/>
<path d="M139.86 378.51L153.18 385.725L198.135 385.725L185.925 376.659L139.86 378.51Z" fill="#EA2121"/>
<path d="M140.273 241.239C140.273 241.239 123.349 273.785 137.018 280.294C150.687 286.803 153.942 286.152 153.942 288.105C153.942 290.058 151.338 289.407 152.64 292.662C153.942 295.916 150.037 308.935 153.942 316.746C157.848 324.557 156.546 330.415 156.546 330.415C156.546 330.415 156.546 331.066 157.848 333.669C159.149 336.273 159.8 338.226 159.149 339.528C158.499 340.83 154.593 349.291 158.499 351.244C162.404 353.197 182.582 354.499 184.535 351.244C186.488 347.99 182.582 346.037 184.535 344.084C186.488 342.131 187.79 341.48 186.488 340.179C185.186 338.877 183.884 322.604 183.884 322.604C183.884 322.604 187.139 303.727 185.837 301.124C184.535 298.52 182.582 295.916 183.884 293.963C185.186 292.011 186.488 292.662 187.139 290.058C187.79 287.454 189.092 281.596 189.092 281.596L196.252 280.945L213.176 284.2C213.176 284.2 232.052 305.029 252.882 311.538C252.882 311.538 258.74 317.396 260.693 317.396C262.645 317.396 262.645 317.396 261.995 318.698C261.344 320 259.391 320 260.693 321.302C261.995 322.604 263.947 320.651 262.645 322.604C261.344 324.557 260.042 324.557 261.344 325.858C262.645 327.16 260.693 334.32 260.693 334.971C260.693 335.622 254.834 396.808 256.787 398.11C258.74 399.412 286.078 403.318 288.031 398.11C289.984 392.903 286.729 386.394 286.729 386.394C286.729 386.394 296.493 308.284 293.89 303.076C291.286 297.869 282.173 274.436 233.354 259.465C233.354 259.465 219.685 256.861 219.685 254.908C219.685 252.956 218.383 240.588 215.779 239.937C213.176 239.286 198.205 238.635 198.205 238.635L179.328 244.494L153.291 239.937L140.273 241.239Z" fill="#292940"/>
<path d="M163.055 350.593L159.8 362.31C159.8 362.31 157.197 381.186 160.451 385.743C163.008 389.322 167.572 393.704 176.037 394.473C178.41 394.691 180.785 394.092 182.771 392.776C184.757 391.46 186.234 389.506 186.959 387.236C187.056 386.965 187.116 386.681 187.139 386.394C187.139 385.092 185.186 369.47 185.186 369.47L181.932 353.197L181.281 348.641L163.055 350.593Z" fill="#292940"/>
<path d="M258.089 406.572C258.089 406.572 254.834 403.318 254.184 406.572C253.533 409.827 250.929 423.496 255.485 424.147C260.042 424.798 303.653 431.307 308.21 428.704C312.766 426.1 321.228 422.194 316.021 420.242C310.813 418.289 295.842 412.431 295.842 412.431C295.842 412.431 287.38 401.365 286.079 400.714C284.777 400.063 277.617 401.365 274.362 403.969C271.107 406.572 258.089 406.572 258.089 406.572Z" fill="#292940"/>
<path d="M188.441 140.347C199.585 140.347 208.619 131.313 208.619 120.168C208.619 109.024 199.585 99.9898 188.441 99.9898C177.297 99.9898 168.262 109.024 168.262 120.168C168.262 131.313 177.297 140.347 188.441 140.347Z" fill="#8F8F8F"/>
<path d="M186.488 165.733L178.677 157.271L170.019 140.347C170.019 140.347 163.706 138.394 162.404 141.649C161.102 144.903 137.669 155.318 137.669 155.318C137.669 155.318 143.527 209.995 140.924 215.202C138.32 220.41 133.764 241.239 137.669 243.192C141.575 245.145 159.8 243.192 165.659 245.795C171.517 248.399 188.441 248.399 192.997 245.145C197.554 241.89 198.856 239.286 203.412 241.239C207.291 242.901 216.359 186.067 218.97 169.13C219.19 167.707 219.007 166.251 218.443 164.927C217.878 163.603 216.954 162.464 215.775 161.638C209.935 157.541 199.416 150.481 197.554 151.412C194.95 152.714 186.488 165.733 186.488 165.733Z" fill="#4B4DED"/>
<path d="M214.478 163.129C216.006 163.511 217.381 164.352 218.418 165.538C219.455 166.724 220.104 168.2 220.278 169.765L225.543 217.155C225.543 217.155 212.525 245.145 206.016 226.268C199.506 207.391 214.478 163.129 214.478 163.129Z" fill="#4B4DED"/>
<path d="M213.176 221.712L227.496 217.806C227.496 217.806 230.1 236.032 232.703 236.032C235.307 236.032 223.59 246.446 217.732 245.145C211.874 243.843 203.412 239.286 202.761 236.032C202.11 232.777 208.619 219.108 208.619 219.108L213.176 221.712Z" fill="#4B4DED"/>
<path d="M173.208 128.873C174.58 125.848 174.342 122.318 175.476 119.196C176.084 117.524 177.07 116.015 178.357 114.787C179.644 113.56 181.197 112.646 182.896 112.118C184.594 111.59 186.392 111.461 188.148 111.743C189.905 112.024 191.572 112.708 193.021 113.741C194.48 114.781 195.943 116.243 197.724 116.045C199.642 115.831 201.353 113.691 203.116 114.475C205.071 115.344 204.543 118.847 206.523 119.656C207.565 120.082 208.797 119.426 209.398 118.474C209.924 117.474 210.211 116.365 210.235 115.235C210.509 112.459 210.755 109.521 209.551 107.004C209.045 106.151 208.604 105.262 208.231 104.342C208.021 103.484 207.936 102.599 207.98 101.716C207.969 98.453 207.731 95.0493 206.089 92.2295C204.267 89.1005 200.898 87.0996 197.384 86.2266C193.87 85.3535 190.188 85.4874 186.58 85.7928C180.615 86.2978 174.395 87.3802 169.696 91.0881C169.057 91.5547 168.508 92.1322 168.073 92.7932C167.661 93.5784 167.369 94.4214 167.209 95.2937C166.193 99.431 164.669 103.427 162.673 107.191C161.713 108.786 160.928 110.481 160.333 112.245C159.835 114.038 159.868 116.081 160.911 117.622C161.761 118.877 163.118 119.546 164.185 120.571C165.242 121.588 165.737 123.542 166.908 124.312C167.93 124.984 169.154 124.51 170.197 125.222C171.535 126.136 171.632 128.141 173.208 128.873Z" fill="#292940"/>
<path d="M189.743 175.496L191.695 171.591C191.695 171.591 220.336 180.053 226.194 187.864C226.194 187.864 240.514 178.751 248.325 180.053L256.136 181.355L232.052 202.835L201.459 200.231L189.743 175.496Z" fill="#F8F8F8"/>
<path d="M188.441 171.591L161.753 208.693L200.157 227.57C200.157 227.57 203.748 229.522 206.509 227.57L232.052 215.853L256.136 181.355L232.052 193.722C232.052 193.722 229.449 188.515 224.241 191.118L188.441 171.591Z" fill="#F53A3A"/>
<path d="M229.449 237.334L234.656 223.664C234.656 223.664 246.373 208.693 239.863 201.533C233.354 194.373 226.194 222.362 226.194 222.362L229.449 237.334Z" fill="#8F8F8F"/>
<path d="M169.367 235.152L180.73 225.94C180.73 225.94 198.376 218.868 196.338 209.409C194.3 199.949 174.063 220.569 174.063 220.569L169.367 235.152Z" fill="#8F8F8F"/>
<path opacity="0.1" d="M141.249 169.313H140.598C140.598 169.313 130.509 157.271 128.556 173.544C126.604 189.816 120.094 243.843 137.018 245.795C153.942 247.748 165.984 237.659 165.984 237.659C165.984 237.659 178.351 218.782 173.795 218.782C171.59 218.782 165.595 217.792 160.126 218.131C154.292 218.493 149.05 220.137 149.386 218.457C150.037 215.202 159.475 173.869 141.249 169.313Z" fill="#09093D"/>
<path d="M140.273 156.62L137.669 155.318C137.669 155.318 127.254 157.271 125.302 173.544C123.349 189.817 116.84 243.843 133.764 245.795C150.687 247.748 173.47 243.192 173.47 243.192C173.47 243.192 178.026 218.457 173.47 218.457C168.913 218.457 145.48 221.712 146.131 218.457C146.782 215.202 158.498 161.176 140.273 156.62Z" fill="#4B4DED"/>
<path d="M220.01 229.848L227.188 218.847L231.727 237.008L220.01 242.216V229.848Z" fill="#4B4DED"/>
<path d="M72.5599 72.9767C82.2662 72.9767 90.1347 65.1082 90.1347 55.4019C90.1347 45.6956 82.2662 37.8271 72.5599 37.8271C62.8536 37.8271 54.9851 45.6956 54.9851 55.4019C54.9851 65.1082 62.8536 72.9767 72.5599 72.9767Z" fill="#FAD34B" fill-opacity="0.5"/>
<path d="M93.3893 186.236H51.7305V227.895H93.3893V186.236Z" fill="#37BC54" fill-opacity="0.25"/>
<path d="M242.142 0L252.686 18.2628L263.229 36.5256H242.142H221.054L231.597 18.2628L242.142 0Z" fill="#F53A3A" fill-opacity="0.5"/>
<path d="M425.854 109.503C425.602 117.295 423.705 123.54 420.162 128.239C416.619 132.938 412.409 135.288 407.533 135.289C403.562 135.289 400.081 132.989 397.091 128.39C394.1 123.791 392.605 116.716 392.605 107.166C392.605 105.055 392.655 103.044 392.756 101.134C392.856 99.2247 392.982 97.4152 393.133 95.7059L395.772 70.9007H378.355C375.339 102.265 372.864 120.926 370.929 126.882C368.993 132.838 365.714 135.816 361.09 135.816C359.002 135.765 357.011 134.931 355.51 133.479C354.64 132.708 353.952 131.754 353.496 130.685C353.04 129.615 352.826 128.458 352.871 127.297C352.871 124.985 354.693 121.756 358.338 117.608C361.981 113.462 364.005 109.679 364.407 106.261L368.931 70.9007H361.618C359.556 70.913 357.527 71.417 355.699 72.3708C354.017 73.1435 352.553 74.3224 351.439 75.8013L348.197 80.6267H345.558C348.02 72.987 351.049 67.2444 354.643 63.3988C358.236 59.5536 362.371 57.631 367.046 57.631H424.648V70.9007H405.196C404.593 76.9324 404.128 82.964 403.801 88.9956C403.474 95.0272 403.311 101.084 403.311 107.166C403.311 111.288 404.266 114.631 406.176 117.194C408.086 119.757 410.474 121.039 413.339 121.039C415.098 121.039 416.945 120.322 418.88 118.89C419.8 118.245 420.568 117.41 421.134 116.44C421.701 115.471 422.05 114.39 422.16 113.273C422.311 112.168 422.424 111.301 422.499 110.672C422.575 110.044 422.613 109.654 422.613 109.503L425.854 109.503Z" fill="#F53A3A"/>
<path opacity="0.1" d="M425.854 109.503C425.602 117.295 423.705 123.54 420.162 128.239C416.619 132.938 412.409 135.288 407.533 135.289C403.562 135.289 400.081 132.989 397.091 128.39C394.1 123.791 392.605 116.716 392.605 107.166C392.605 105.055 392.655 103.044 392.756 101.134C392.856 99.2247 392.982 97.4152 393.133 95.7059L395.772 70.9007H378.355C375.339 102.265 372.864 120.926 370.929 126.882C368.993 132.838 365.714 135.816 361.09 135.816C359.002 135.765 357.011 134.931 355.51 133.479C354.64 132.708 353.952 131.754 353.496 130.685C353.04 129.615 352.826 128.458 352.871 127.297C352.871 124.985 354.693 121.756 358.338 117.608C361.981 113.462 364.005 109.679 364.407 106.261L368.931 70.9007H361.618C359.556 70.913 357.527 71.417 355.699 72.3708C354.017 73.1435 352.553 74.3224 351.439 75.8013L348.197 80.6267H345.558C348.02 72.987 351.049 67.2444 354.643 63.3988C358.236 59.5536 362.371 57.631 367.046 57.631H424.648V70.9007H405.196C404.593 76.9324 404.128 82.964 403.801 88.9956C403.474 95.0272 403.311 101.084 403.311 107.166C403.311 111.288 404.266 114.631 406.176 117.194C408.086 119.757 410.474 121.039 413.339 121.039C415.098 121.039 416.945 120.322 418.88 118.89C419.8 118.245 420.568 117.41 421.134 116.44C421.701 115.471 422.05 114.39 422.16 113.273C422.311 112.168 422.424 111.301 422.499 110.672C422.575 110.044 422.613 109.654 422.613 109.503L425.854 109.503Z" fill="#09093D"/>
<path d="M425.854 107.148C425.602 114.939 423.705 121.185 420.162 125.883C416.619 130.583 412.409 132.933 407.533 132.933C403.562 132.933 400.081 130.633 397.091 126.034C394.1 121.435 392.605 114.36 392.605 104.81C392.605 102.699 392.655 100.689 392.756 98.7787C392.856 96.869 392.982 95.0595 393.133 93.3502L395.772 68.545H378.355C375.339 99.9096 372.864 118.57 370.929 124.526C368.993 130.482 365.714 133.461 361.09 133.461C359.002 133.409 357.011 132.575 355.51 131.124C354.64 130.353 353.952 129.398 353.496 128.329C353.04 127.26 352.826 126.103 352.871 124.941C352.871 122.63 354.693 119.4 358.338 115.253C361.981 111.106 364.005 107.323 364.407 103.906L368.931 68.545H361.618C359.556 68.5573 357.527 69.0613 355.699 70.0151C354.017 70.7878 352.553 71.9667 351.439 73.4456L348.197 78.271H345.558C348.02 70.6313 351.049 64.8887 354.643 61.0431C358.236 57.1979 362.371 55.2753 367.046 55.2753H424.648V68.545H405.196C404.593 74.5767 404.128 80.6083 403.801 86.6399C403.474 92.6716 403.311 98.7284 403.311 104.81C403.311 108.932 404.266 112.275 406.176 114.838C408.086 117.402 410.474 118.683 413.339 118.683C415.098 118.683 416.945 117.967 418.88 116.534C419.8 115.89 420.568 115.054 421.134 114.084C421.701 113.115 422.05 112.035 422.16 110.917C422.311 109.812 422.424 108.945 422.499 108.316C422.575 107.688 422.613 107.299 422.613 107.148H425.854Z" fill="#F53A3A"/>
<path d="M153.18 385.725L139.86 378.51V419.667L153.18 427.35V385.725Z" fill="#CE2121"/>
<g filter="url(#filter0_dd)">
<rect x="339" y="203" width="235" height="204" rx="16" fill="white"/>
<rect x="363" y="303.749" width="27.0769" height="55.893" rx="2" fill="#FAD34B"/>
<path d="M368.754 379.682C368.754 380.162 368.694 380.592 368.574 380.972C368.458 381.352 368.284 381.674 368.052 381.938C367.824 382.198 367.542 382.398 367.206 382.538C366.87 382.678 366.484 382.748 366.048 382.748C365.652 382.748 365.248 382.692 364.836 382.58C364.844 382.464 364.854 382.35 364.866 382.238C364.878 382.122 364.888 382.008 364.896 381.896C364.904 381.828 364.928 381.774 364.968 381.734C365.012 381.69 365.078 381.668 365.166 381.668C365.238 381.668 365.332 381.686 365.448 381.722C365.568 381.758 365.728 381.776 365.928 381.776C366.192 381.776 366.428 381.736 366.636 381.656C366.844 381.576 367.018 381.452 367.158 381.284C367.298 381.116 367.404 380.902 367.476 380.642C367.552 380.378 367.59 380.066 367.59 379.706V374.054H368.754V379.682ZM373.672 379.916C373.18 379.932 372.76 379.972 372.412 380.036C372.068 380.096 371.786 380.176 371.566 380.276C371.35 380.376 371.192 380.494 371.092 380.63C370.996 380.766 370.948 380.918 370.948 381.086C370.948 381.246 370.974 381.384 371.026 381.5C371.078 381.616 371.148 381.712 371.236 381.788C371.328 381.86 371.434 381.914 371.554 381.95C371.678 381.982 371.81 381.998 371.95 381.998C372.138 381.998 372.31 381.98 372.466 381.944C372.622 381.904 372.768 381.848 372.904 381.776C373.044 381.704 373.176 381.618 373.3 381.518C373.428 381.418 373.552 381.304 373.672 381.176V379.916ZM370.222 377.432C370.558 377.108 370.92 376.866 371.308 376.706C371.696 376.546 372.126 376.466 372.598 376.466C372.938 376.466 373.24 376.522 373.504 376.634C373.768 376.746 373.99 376.902 374.17 377.102C374.35 377.302 374.486 377.544 374.578 377.828C374.67 378.112 374.716 378.424 374.716 378.764V382.652H374.242C374.138 382.652 374.058 382.636 374.002 382.604C373.946 382.568 373.902 382.5 373.87 382.4L373.75 381.824C373.59 381.972 373.434 382.104 373.282 382.22C373.13 382.332 372.97 382.428 372.802 382.508C372.634 382.584 372.454 382.642 372.262 382.682C372.074 382.726 371.864 382.748 371.632 382.748C371.396 382.748 371.174 382.716 370.966 382.652C370.758 382.584 370.576 382.484 370.42 382.352C370.268 382.22 370.146 382.054 370.054 381.854C369.966 381.65 369.922 381.41 369.922 381.134C369.922 380.894 369.988 380.664 370.12 380.444C370.252 380.22 370.466 380.022 370.762 379.85C371.058 379.678 371.444 379.538 371.92 379.43C372.396 379.318 372.98 379.254 373.672 379.238V378.764C373.672 378.292 373.57 377.936 373.366 377.696C373.162 377.452 372.864 377.33 372.472 377.33C372.208 377.33 371.986 377.364 371.806 377.432C371.63 377.496 371.476 377.57 371.344 377.654C371.216 377.734 371.104 377.808 371.008 377.876C370.916 377.94 370.824 377.972 370.732 377.972C370.66 377.972 370.598 377.954 370.546 377.918C370.494 377.878 370.45 377.83 370.414 377.774L370.222 377.432ZM377.351 377.456C377.483 377.308 377.623 377.174 377.771 377.054C377.919 376.934 378.075 376.832 378.239 376.748C378.407 376.66 378.583 376.594 378.767 376.55C378.955 376.502 379.157 376.478 379.373 376.478C379.705 376.478 379.997 376.534 380.249 376.646C380.505 376.754 380.717 376.91 380.885 377.114C381.057 377.314 381.187 377.556 381.275 377.84C381.363 378.124 381.407 378.438 381.407 378.782V382.652H380.333V378.782C380.333 378.322 380.227 377.966 380.015 377.714C379.807 377.458 379.489 377.33 379.061 377.33C378.745 377.33 378.449 377.406 378.173 377.558C377.901 377.71 377.649 377.916 377.417 378.176V382.652H376.343V376.574H376.985C377.137 376.574 377.231 376.648 377.267 376.796L377.351 377.456Z" fill="#8F8F8F"/>
<rect x="402.769" y="323.77" width="27.0769" height="35.8717" rx="2" fill="#F53A3A"/>
<path d="M407.57 375.002V378.008H411.104V378.956H407.57V382.652H406.406V374.054H411.704V375.002H407.57ZM416.479 378.95C416.479 378.702 416.443 378.476 416.371 378.272C416.303 378.064 416.201 377.886 416.065 377.738C415.933 377.586 415.771 377.47 415.579 377.39C415.387 377.306 415.169 377.264 414.925 377.264C414.413 377.264 414.007 377.414 413.707 377.714C413.411 378.01 413.227 378.422 413.155 378.95H416.479ZM417.343 381.8C417.211 381.96 417.053 382.1 416.869 382.22C416.685 382.336 416.487 382.432 416.275 382.508C416.067 382.584 415.851 382.64 415.627 382.676C415.403 382.716 415.181 382.736 414.961 382.736C414.541 382.736 414.153 382.666 413.797 382.526C413.445 382.382 413.139 382.174 412.879 381.902C412.623 381.626 412.423 381.286 412.279 380.882C412.135 380.478 412.063 380.014 412.063 379.49C412.063 379.066 412.127 378.67 412.255 378.302C412.387 377.934 412.575 377.616 412.819 377.348C413.063 377.076 413.361 376.864 413.713 376.712C414.065 376.556 414.461 376.478 414.901 376.478C415.265 376.478 415.601 376.54 415.909 376.664C416.221 376.784 416.489 376.96 416.713 377.192C416.941 377.42 417.119 377.704 417.247 378.044C417.375 378.38 417.439 378.764 417.439 379.196C417.439 379.364 417.421 379.476 417.385 379.532C417.349 379.588 417.281 379.616 417.181 379.616H413.119C413.131 380 413.183 380.334 413.275 380.618C413.371 380.902 413.503 381.14 413.671 381.332C413.839 381.52 414.039 381.662 414.271 381.758C414.503 381.85 414.763 381.896 415.051 381.896C415.319 381.896 415.549 381.866 415.741 381.806C415.937 381.742 416.105 381.674 416.245 381.602C416.385 381.53 416.501 381.464 416.593 381.404C416.689 381.34 416.771 381.308 416.839 381.308C416.927 381.308 416.995 381.342 417.043 381.41L417.343 381.8ZM419.825 381.188C420.021 381.452 420.235 381.638 420.467 381.746C420.703 381.854 420.961 381.908 421.241 381.908C421.813 381.908 422.251 381.706 422.555 381.302C422.859 380.898 423.011 380.296 423.011 379.496C423.011 378.752 422.875 378.206 422.603 377.858C422.335 377.506 421.951 377.33 421.451 377.33C421.103 377.33 420.799 377.41 420.539 377.57C420.283 377.73 420.045 377.956 419.825 378.248V381.188ZM419.825 377.45C420.081 377.154 420.369 376.918 420.689 376.742C421.013 376.566 421.385 376.478 421.805 376.478C422.161 376.478 422.481 376.546 422.765 376.682C423.053 376.818 423.297 377.016 423.497 377.276C423.697 377.532 423.849 377.844 423.953 378.212C424.061 378.58 424.115 378.994 424.115 379.454C424.115 379.946 424.055 380.394 423.935 380.798C423.815 381.202 423.641 381.548 423.413 381.836C423.189 382.12 422.915 382.342 422.591 382.502C422.267 382.658 421.903 382.736 421.499 382.736C421.099 382.736 420.761 382.662 420.485 382.514C420.213 382.362 419.975 382.148 419.771 381.872L419.717 382.424C419.685 382.576 419.593 382.652 419.441 382.652H418.751V373.814H419.825V377.45Z" fill="#8F8F8F"/>
<rect x="442.538" y="285.396" width="27.0769" height="74.246" rx="2" fill="#FAD34B"/>
<path d="M452.582 374.054V382.652H451.562V376.334C451.562 376.25 451.564 376.16 451.568 376.064C451.576 375.968 451.584 375.87 451.592 375.77L448.64 381.146C448.548 381.326 448.408 381.416 448.22 381.416H448.052C447.864 381.416 447.724 381.326 447.632 381.146L444.62 375.746C444.644 375.958 444.656 376.154 444.656 376.334V382.652H443.636V374.054H444.494C444.598 374.054 444.678 374.064 444.734 374.084C444.79 374.104 444.844 374.16 444.896 374.252L447.866 379.544C447.914 379.64 447.96 379.74 448.004 379.844C448.052 379.948 448.096 380.054 448.136 380.162C448.176 380.054 448.218 379.948 448.262 379.844C448.306 379.736 448.354 379.634 448.406 379.538L451.322 374.252C451.37 374.16 451.422 374.104 451.478 374.084C451.538 374.064 451.62 374.054 451.724 374.054H452.582ZM457.647 379.916C457.155 379.932 456.735 379.972 456.387 380.036C456.043 380.096 455.761 380.176 455.541 380.276C455.325 380.376 455.167 380.494 455.067 380.63C454.971 380.766 454.923 380.918 454.923 381.086C454.923 381.246 454.949 381.384 455.001 381.5C455.053 381.616 455.123 381.712 455.211 381.788C455.303 381.86 455.409 381.914 455.529 381.95C455.653 381.982 455.785 381.998 455.925 381.998C456.113 381.998 456.285 381.98 456.441 381.944C456.597 381.904 456.743 381.848 456.879 381.776C457.019 381.704 457.151 381.618 457.275 381.518C457.403 381.418 457.527 381.304 457.647 381.176V379.916ZM454.197 377.432C454.533 377.108 454.895 376.866 455.283 376.706C455.671 376.546 456.101 376.466 456.573 376.466C456.913 376.466 457.215 376.522 457.479 376.634C457.743 376.746 457.965 376.902 458.145 377.102C458.325 377.302 458.461 377.544 458.553 377.828C458.645 378.112 458.691 378.424 458.691 378.764V382.652H458.217C458.113 382.652 458.033 382.636 457.977 382.604C457.921 382.568 457.877 382.5 457.845 382.4L457.725 381.824C457.565 381.972 457.409 382.104 457.257 382.22C457.105 382.332 456.945 382.428 456.777 382.508C456.609 382.584 456.429 382.642 456.237 382.682C456.049 382.726 455.839 382.748 455.607 382.748C455.371 382.748 455.149 382.716 454.941 382.652C454.733 382.584 454.551 382.484 454.395 382.352C454.243 382.22 454.121 382.054 454.029 381.854C453.941 381.65 453.897 381.41 453.897 381.134C453.897 380.894 453.963 380.664 454.095 380.444C454.227 380.22 454.441 380.022 454.737 379.85C455.033 379.678 455.419 379.538 455.895 379.43C456.371 379.318 456.955 379.254 457.647 379.238V378.764C457.647 378.292 457.545 377.936 457.341 377.696C457.137 377.452 456.839 377.33 456.447 377.33C456.183 377.33 455.961 377.364 455.781 377.432C455.605 377.496 455.451 377.57 455.319 377.654C455.191 377.734 455.079 377.808 454.983 377.876C454.891 377.94 454.799 377.972 454.707 377.972C454.635 377.972 454.573 377.954 454.521 377.918C454.469 377.878 454.425 377.83 454.389 377.774L454.197 377.432ZM461.332 377.792C461.524 377.376 461.76 377.052 462.04 376.82C462.32 376.584 462.662 376.466 463.066 376.466C463.194 376.466 463.316 376.48 463.432 376.508C463.552 376.536 463.658 376.58 463.75 376.64L463.672 377.438C463.648 377.538 463.588 377.588 463.492 377.588C463.436 377.588 463.354 377.576 463.246 377.552C463.138 377.528 463.016 377.516 462.88 377.516C462.688 377.516 462.516 377.544 462.364 377.6C462.216 377.656 462.082 377.74 461.962 377.852C461.846 377.96 461.74 378.096 461.644 378.26C461.552 378.42 461.468 378.604 461.392 378.812V382.652H460.318V376.574H460.93C461.046 376.574 461.126 376.596 461.17 376.64C461.214 376.684 461.244 376.76 461.26 376.868L461.332 377.792Z" fill="#8F8F8F"/>
<rect x="483.154" y="257.032" width="27.0769" height="102.61" rx="2" fill="#F53A3A"/>
<path d="M489.664 379.46L488.314 375.962C488.274 375.858 488.232 375.738 488.188 375.602C488.144 375.462 488.102 375.314 488.062 375.158C487.978 375.482 487.892 375.752 487.804 375.968L486.454 379.46H489.664ZM492.088 382.652H491.188C491.084 382.652 491 382.626 490.936 382.574C490.872 382.522 490.824 382.456 490.792 382.376L489.988 380.3H486.13L485.326 382.376C485.302 382.448 485.256 382.512 485.188 382.568C485.12 382.624 485.036 382.652 484.936 382.652H484.036L487.474 374.054H488.65L492.088 382.652ZM494.018 381.188C494.214 381.452 494.428 381.638 494.66 381.746C494.892 381.854 495.152 381.908 495.44 381.908C496.008 381.908 496.444 381.706 496.748 381.302C497.052 380.898 497.204 380.322 497.204 379.574C497.204 379.178 497.168 378.838 497.096 378.554C497.028 378.27 496.928 378.038 496.796 377.858C496.664 377.674 496.502 377.54 496.31 377.456C496.118 377.372 495.9 377.33 495.656 377.33C495.308 377.33 495.002 377.41 494.738 377.57C494.478 377.73 494.238 377.956 494.018 378.248V381.188ZM493.964 377.516C494.22 377.2 494.516 376.946 494.852 376.754C495.188 376.562 495.572 376.466 496.004 376.466C496.356 376.466 496.674 376.534 496.958 376.67C497.242 376.802 497.484 377 497.684 377.264C497.884 377.524 498.038 377.848 498.146 378.236C498.254 378.624 498.308 379.07 498.308 379.574C498.308 380.022 498.248 380.44 498.128 380.828C498.008 381.212 497.834 381.546 497.606 381.83C497.382 382.11 497.106 382.332 496.778 382.496C496.454 382.656 496.088 382.736 495.68 382.736C495.308 382.736 494.988 382.674 494.72 382.55C494.456 382.422 494.222 382.246 494.018 382.022V384.71H492.944V376.574H493.586C493.738 376.574 493.832 376.648 493.868 376.796L493.964 377.516ZM500.684 377.792C500.876 377.376 501.112 377.052 501.392 376.82C501.672 376.584 502.014 376.466 502.418 376.466C502.546 376.466 502.668 376.48 502.784 376.508C502.904 376.536 503.01 376.58 503.102 376.64L503.024 377.438C503 377.538 502.94 377.588 502.844 377.588C502.788 377.588 502.706 377.576 502.598 377.552C502.49 377.528 502.368 377.516 502.232 377.516C502.04 377.516 501.868 377.544 501.716 377.6C501.568 377.656 501.434 377.74 501.314 377.852C501.198 377.96 501.092 378.096 500.996 378.26C500.904 378.42 500.82 378.604 500.744 378.812V382.652H499.67V376.574H500.282C500.398 376.574 500.478 376.596 500.522 376.64C500.566 376.684 500.596 376.76 500.612 376.868L500.684 377.792Z" fill="#8F8F8F"/>
<rect x="522.923" y="285.396" width="27.0769" height="74.246" rx="2" fill="#4B4DED"/>
<path d="M532.967 374.054V382.652H531.947V376.334C531.947 376.25 531.949 376.16 531.953 376.064C531.961 375.968 531.969 375.87 531.977 375.77L529.025 381.146C528.933 381.326 528.793 381.416 528.605 381.416H528.437C528.249 381.416 528.109 381.326 528.017 381.146L525.005 375.746C525.029 375.958 525.041 376.154 525.041 376.334V382.652H524.021V374.054H524.879C524.983 374.054 525.063 374.064 525.119 374.084C525.175 374.104 525.229 374.16 525.281 374.252L528.251 379.544C528.299 379.64 528.345 379.74 528.389 379.844C528.437 379.948 528.481 380.054 528.521 380.162C528.561 380.054 528.603 379.948 528.647 379.844C528.691 379.736 528.739 379.634 528.791 379.538L531.707 374.252C531.755 374.16 531.807 374.104 531.863 374.084C531.923 374.064 532.005 374.054 532.109 374.054H532.967ZM538.032 379.916C537.54 379.932 537.12 379.972 536.772 380.036C536.428 380.096 536.146 380.176 535.926 380.276C535.71 380.376 535.552 380.494 535.452 380.63C535.356 380.766 535.308 380.918 535.308 381.086C535.308 381.246 535.334 381.384 535.386 381.5C535.438 381.616 535.508 381.712 535.596 381.788C535.688 381.86 535.794 381.914 535.914 381.95C536.038 381.982 536.17 381.998 536.31 381.998C536.498 381.998 536.67 381.98 536.826 381.944C536.982 381.904 537.128 381.848 537.264 381.776C537.404 381.704 537.536 381.618 537.66 381.518C537.788 381.418 537.912 381.304 538.032 381.176V379.916ZM534.582 377.432C534.918 377.108 535.28 376.866 535.668 376.706C536.056 376.546 536.486 376.466 536.958 376.466C537.298 376.466 537.6 376.522 537.864 376.634C538.128 376.746 538.35 376.902 538.53 377.102C538.71 377.302 538.846 377.544 538.938 377.828C539.03 378.112 539.076 378.424 539.076 378.764V382.652H538.602C538.498 382.652 538.418 382.636 538.362 382.604C538.306 382.568 538.262 382.5 538.23 382.4L538.11 381.824C537.95 381.972 537.794 382.104 537.642 382.22C537.49 382.332 537.33 382.428 537.162 382.508C536.994 382.584 536.814 382.642 536.622 382.682C536.434 382.726 536.224 382.748 535.992 382.748C535.756 382.748 535.534 382.716 535.326 382.652C535.118 382.584 534.936 382.484 534.78 382.352C534.628 382.22 534.506 382.054 534.414 381.854C534.326 381.65 534.282 381.41 534.282 381.134C534.282 380.894 534.348 380.664 534.48 380.444C534.612 380.22 534.826 380.022 535.122 379.85C535.418 379.678 535.804 379.538 536.28 379.43C536.756 379.318 537.34 379.254 538.032 379.238V378.764C538.032 378.292 537.93 377.936 537.726 377.696C537.522 377.452 537.224 377.33 536.832 377.33C536.568 377.33 536.346 377.364 536.166 377.432C535.99 377.496 535.836 377.57 535.704 377.654C535.576 377.734 535.464 377.808 535.368 377.876C535.276 377.94 535.184 377.972 535.092 377.972C535.02 377.972 534.958 377.954 534.906 377.918C534.854 377.878 534.81 377.83 534.774 377.774L534.582 377.432ZM545.806 376.574L542.416 384.446C542.38 384.526 542.334 384.59 542.278 384.638C542.226 384.686 542.144 384.71 542.032 384.71H541.24L542.35 382.298L539.842 376.574H540.766C540.858 376.574 540.93 376.598 540.982 376.646C541.038 376.69 541.076 376.74 541.096 376.796L542.722 380.624C542.786 380.792 542.84 380.968 542.884 381.152C542.94 380.964 543 380.786 543.064 380.618L544.642 376.796C544.666 376.732 544.706 376.68 544.762 376.64C544.822 376.596 544.888 376.574 544.96 376.574H545.806Z" fill="#8F8F8F"/>
<path d="M376.375 230.65H374.055V237H373.09V230.65H370.765V229.835H376.375V230.65ZM378.143 231.855C378.513 231.855 378.846 231.917 379.143 232.04C379.44 232.163 379.693 232.338 379.903 232.565C380.113 232.792 380.273 233.067 380.383 233.39C380.496 233.71 380.553 234.068 380.553 234.465C380.553 234.865 380.496 235.225 380.383 235.545C380.273 235.865 380.113 236.138 379.903 236.365C379.693 236.592 379.44 236.767 379.143 236.89C378.846 237.01 378.513 237.07 378.143 237.07C377.77 237.07 377.433 237.01 377.133 236.89C376.836 236.767 376.583 236.592 376.373 236.365C376.163 236.138 376.001 235.865 375.888 235.545C375.778 235.225 375.723 234.865 375.723 234.465C375.723 234.068 375.778 233.71 375.888 233.39C376.001 233.067 376.163 232.792 376.373 232.565C376.583 232.338 376.836 232.163 377.133 232.04C377.433 231.917 377.77 231.855 378.143 231.855ZM378.143 236.375C378.643 236.375 379.016 236.208 379.263 235.875C379.51 235.538 379.633 235.07 379.633 234.47C379.633 233.867 379.51 233.397 379.263 233.06C379.016 232.723 378.643 232.555 378.143 232.555C377.89 232.555 377.668 232.598 377.478 232.685C377.291 232.772 377.135 232.897 377.008 233.06C376.885 233.223 376.791 233.425 376.728 233.665C376.668 233.902 376.638 234.17 376.638 234.47C376.638 235.07 376.761 235.538 377.008 235.875C377.258 236.208 377.636 236.375 378.143 236.375ZM383.149 237.08C382.749 237.08 382.44 236.968 382.224 236.745C382.01 236.522 381.904 236.2 381.904 235.78V232.68H381.294C381.24 232.68 381.195 232.665 381.159 232.635C381.122 232.602 381.104 232.552 381.104 232.485V232.13L381.934 232.025L382.139 230.46C382.149 230.41 382.17 230.37 382.204 230.34C382.24 230.307 382.287 230.29 382.344 230.29H382.794V232.035H384.259V232.68H382.794V235.72C382.794 235.933 382.845 236.092 382.949 236.195C383.052 236.298 383.185 236.35 383.349 236.35C383.442 236.35 383.522 236.338 383.589 236.315C383.659 236.288 383.719 236.26 383.769 236.23C383.819 236.2 383.86 236.173 383.894 236.15C383.93 236.123 383.962 236.11 383.989 236.11C384.035 236.11 384.077 236.138 384.114 236.195L384.374 236.62C384.22 236.763 384.035 236.877 383.819 236.96C383.602 237.04 383.379 237.08 383.149 237.08ZM387.923 234.72C387.513 234.733 387.163 234.767 386.873 234.82C386.586 234.87 386.351 234.937 386.168 235.02C385.988 235.103 385.856 235.202 385.773 235.315C385.693 235.428 385.653 235.555 385.653 235.695C385.653 235.828 385.674 235.943 385.718 236.04C385.761 236.137 385.819 236.217 385.893 236.28C385.969 236.34 386.058 236.385 386.158 236.415C386.261 236.442 386.371 236.455 386.488 236.455C386.644 236.455 386.788 236.44 386.918 236.41C387.048 236.377 387.169 236.33 387.283 236.27C387.399 236.21 387.509 236.138 387.613 236.055C387.719 235.972 387.823 235.877 387.923 235.77V234.72ZM385.048 232.65C385.328 232.38 385.629 232.178 385.953 232.045C386.276 231.912 386.634 231.845 387.028 231.845C387.311 231.845 387.563 231.892 387.783 231.985C388.003 232.078 388.188 232.208 388.338 232.375C388.488 232.542 388.601 232.743 388.678 232.98C388.754 233.217 388.793 233.477 388.793 233.76V237H388.398C388.311 237 388.244 236.987 388.198 236.96C388.151 236.93 388.114 236.873 388.088 236.79L387.988 236.31C387.854 236.433 387.724 236.543 387.598 236.64C387.471 236.733 387.338 236.813 387.198 236.88C387.058 236.943 386.908 236.992 386.748 237.025C386.591 237.062 386.416 237.08 386.223 237.08C386.026 237.08 385.841 237.053 385.668 237C385.494 236.943 385.343 236.86 385.213 236.75C385.086 236.64 384.984 236.502 384.908 236.335C384.834 236.165 384.798 235.965 384.798 235.735C384.798 235.535 384.853 235.343 384.963 235.16C385.073 234.973 385.251 234.808 385.498 234.665C385.744 234.522 386.066 234.405 386.463 234.315C386.859 234.222 387.346 234.168 387.923 234.155V233.76C387.923 233.367 387.838 233.07 387.668 232.87C387.498 232.667 387.249 232.565 386.923 232.565C386.703 232.565 386.518 232.593 386.368 232.65C386.221 232.703 386.093 232.765 385.983 232.835C385.876 232.902 385.783 232.963 385.703 233.02C385.626 233.073 385.549 233.1 385.473 233.1C385.413 233.1 385.361 233.085 385.318 233.055C385.274 233.022 385.238 232.982 385.208 232.935L385.048 232.65ZM391.068 229.635V237H390.178V229.635H391.068ZM398.945 230.955C398.915 231.005 398.882 231.043 398.845 231.07C398.812 231.093 398.77 231.105 398.72 231.105C398.664 231.105 398.597 231.077 398.52 231.02C398.444 230.963 398.347 230.902 398.23 230.835C398.117 230.765 397.979 230.702 397.815 230.645C397.655 230.588 397.46 230.56 397.23 230.56C397.014 230.56 396.822 230.59 396.655 230.65C396.492 230.707 396.354 230.785 396.24 230.885C396.13 230.985 396.047 231.103 395.99 231.24C395.934 231.373 395.905 231.518 395.905 231.675C395.905 231.875 395.954 232.042 396.05 232.175C396.15 232.305 396.28 232.417 396.44 232.51C396.604 232.603 396.787 232.685 396.99 232.755C397.197 232.822 397.407 232.892 397.62 232.965C397.837 233.038 398.047 233.122 398.25 233.215C398.457 233.305 398.64 233.42 398.8 233.56C398.964 233.7 399.094 233.872 399.19 234.075C399.29 234.278 399.34 234.528 399.34 234.825C399.34 235.138 399.287 235.433 399.18 235.71C399.074 235.983 398.917 236.222 398.71 236.425C398.507 236.628 398.255 236.788 397.955 236.905C397.659 237.022 397.32 237.08 396.94 237.08C396.474 237.08 396.05 236.997 395.67 236.83C395.29 236.66 394.965 236.432 394.695 236.145L394.975 235.685C395.002 235.648 395.034 235.618 395.07 235.595C395.11 235.568 395.154 235.555 395.2 235.555C395.244 235.555 395.292 235.573 395.345 235.61C395.402 235.643 395.465 235.687 395.535 235.74C395.605 235.793 395.685 235.852 395.775 235.915C395.865 235.978 395.967 236.037 396.08 236.09C396.197 236.143 396.329 236.188 396.475 236.225C396.622 236.258 396.787 236.275 396.97 236.275C397.2 236.275 397.405 236.243 397.585 236.18C397.765 236.117 397.917 236.028 398.04 235.915C398.167 235.798 398.264 235.66 398.33 235.5C398.397 235.34 398.43 235.162 398.43 234.965C398.43 234.748 398.38 234.572 398.28 234.435C398.184 234.295 398.055 234.178 397.895 234.085C397.735 233.992 397.552 233.913 397.345 233.85C397.139 233.783 396.929 233.717 396.715 233.65C396.502 233.58 396.292 233.5 396.085 233.41C395.879 233.32 395.695 233.203 395.535 233.06C395.375 232.917 395.245 232.738 395.145 232.525C395.049 232.308 395 232.042 395 231.725C395 231.472 395.049 231.227 395.145 230.99C395.245 230.753 395.389 230.543 395.575 230.36C395.765 230.177 395.997 230.03 396.27 229.92C396.547 229.81 396.864 229.755 397.22 229.755C397.62 229.755 397.984 229.818 398.31 229.945C398.64 230.072 398.93 230.255 399.18 230.495L398.945 230.955ZM403.996 232.835C403.969 232.872 403.942 232.9 403.916 232.92C403.889 232.94 403.852 232.95 403.806 232.95C403.756 232.95 403.701 232.93 403.641 232.89C403.581 232.847 403.506 232.8 403.416 232.75C403.329 232.7 403.221 232.655 403.091 232.615C402.964 232.572 402.807 232.55 402.621 232.55C402.371 232.55 402.151 232.595 401.961 232.685C401.771 232.772 401.611 232.898 401.481 233.065C401.354 233.232 401.257 233.433 401.191 233.67C401.127 233.907 401.096 234.172 401.096 234.465C401.096 234.772 401.131 235.045 401.201 235.285C401.271 235.522 401.369 235.722 401.496 235.885C401.626 236.045 401.781 236.168 401.961 236.255C402.144 236.338 402.349 236.38 402.576 236.38C402.792 236.38 402.971 236.355 403.111 236.305C403.251 236.252 403.366 236.193 403.456 236.13C403.549 236.067 403.626 236.01 403.686 235.96C403.749 235.907 403.811 235.88 403.871 235.88C403.944 235.88 404.001 235.908 404.041 235.965L404.291 236.29C404.181 236.427 404.056 236.543 403.916 236.64C403.776 236.737 403.624 236.818 403.461 236.885C403.301 236.948 403.132 236.995 402.956 237.025C402.779 237.055 402.599 237.07 402.416 237.07C402.099 237.07 401.804 237.012 401.531 236.895C401.261 236.778 401.026 236.61 400.826 236.39C400.626 236.167 400.469 235.893 400.356 235.57C400.242 235.247 400.186 234.878 400.186 234.465C400.186 234.088 400.237 233.74 400.341 233.42C400.447 233.1 400.601 232.825 400.801 232.595C401.004 232.362 401.252 232.18 401.546 232.05C401.842 231.92 402.182 231.855 402.566 231.855C402.922 231.855 403.236 231.913 403.506 232.03C403.779 232.143 404.021 232.305 404.231 232.515L403.996 232.835ZM407.293 231.855C407.663 231.855 407.997 231.917 408.293 232.04C408.59 232.163 408.843 232.338 409.053 232.565C409.263 232.792 409.423 233.067 409.533 233.39C409.647 233.71 409.703 234.068 409.703 234.465C409.703 234.865 409.647 235.225 409.533 235.545C409.423 235.865 409.263 236.138 409.053 236.365C408.843 236.592 408.59 236.767 408.293 236.89C407.997 237.01 407.663 237.07 407.293 237.07C406.92 237.07 406.583 237.01 406.283 236.89C405.987 236.767 405.733 236.592 405.523 236.365C405.313 236.138 405.152 235.865 405.038 235.545C404.928 235.225 404.873 234.865 404.873 234.465C404.873 234.068 404.928 233.71 405.038 233.39C405.152 233.067 405.313 232.792 405.523 232.565C405.733 232.338 405.987 232.163 406.283 232.04C406.583 231.917 406.92 231.855 407.293 231.855ZM407.293 236.375C407.793 236.375 408.167 236.208 408.413 235.875C408.66 235.538 408.783 235.07 408.783 234.47C408.783 233.867 408.66 233.397 408.413 233.06C408.167 232.723 407.793 232.555 407.293 232.555C407.04 232.555 406.818 232.598 406.628 232.685C406.442 232.772 406.285 232.897 406.158 233.06C406.035 233.223 405.942 233.425 405.878 233.665C405.818 233.902 405.788 234.17 405.788 234.47C405.788 235.07 405.912 235.538 406.158 235.875C406.408 236.208 406.787 236.375 407.293 236.375ZM411.677 232.95C411.837 232.603 412.034 232.333 412.267 232.14C412.5 231.943 412.785 231.845 413.122 231.845C413.229 231.845 413.33 231.857 413.427 231.88C413.527 231.903 413.615 231.94 413.692 231.99L413.627 232.655C413.607 232.738 413.557 232.78 413.477 232.78C413.43 232.78 413.362 232.77 413.272 232.75C413.182 232.73 413.08 232.72 412.967 232.72C412.807 232.72 412.664 232.743 412.537 232.79C412.414 232.837 412.302 232.907 412.202 233C412.105 233.09 412.017 233.203 411.937 233.34C411.86 233.473 411.79 233.627 411.727 233.8V237H410.832V231.935H411.342C411.439 231.935 411.505 231.953 411.542 231.99C411.579 232.027 411.604 232.09 411.617 232.18L411.677 232.95ZM417.66 233.915C417.66 233.708 417.63 233.52 417.57 233.35C417.513 233.177 417.428 233.028 417.315 232.905C417.205 232.778 417.07 232.682 416.91 232.615C416.75 232.545 416.568 232.51 416.365 232.51C415.938 232.51 415.6 232.635 415.35 232.885C415.103 233.132 414.95 233.475 414.89 233.915H417.66ZM418.38 236.29C418.27 236.423 418.138 236.54 417.985 236.64C417.831 236.737 417.666 236.817 417.49 236.88C417.316 236.943 417.136 236.99 416.95 237.02C416.763 237.053 416.578 237.07 416.395 237.07C416.045 237.07 415.721 237.012 415.425 236.895C415.131 236.775 414.876 236.602 414.66 236.375C414.446 236.145 414.28 235.862 414.16 235.525C414.04 235.188 413.98 234.802 413.98 234.365C413.98 234.012 414.033 233.682 414.14 233.375C414.25 233.068 414.406 232.803 414.61 232.58C414.813 232.353 415.061 232.177 415.355 232.05C415.648 231.92 415.978 231.855 416.345 231.855C416.648 231.855 416.928 231.907 417.185 232.01C417.445 232.11 417.668 232.257 417.855 232.45C418.045 232.64 418.193 232.877 418.3 233.16C418.406 233.44 418.46 233.76 418.46 234.12C418.46 234.26 418.445 234.353 418.415 234.4C418.385 234.447 418.328 234.47 418.245 234.47H414.86C414.87 234.79 414.913 235.068 414.99 235.305C415.07 235.542 415.18 235.74 415.32 235.9C415.46 236.057 415.626 236.175 415.82 236.255C416.013 236.332 416.23 236.37 416.47 236.37C416.693 236.37 416.885 236.345 417.045 236.295C417.208 236.242 417.348 236.185 417.465 236.125C417.581 236.065 417.678 236.01 417.755 235.96C417.835 235.907 417.903 235.88 417.96 235.88C418.033 235.88 418.09 235.908 418.13 235.965L418.38 236.29Z" fill="black"/>
<path d="M382.327 261.988C382.727 261.988 383.043 262.1 383.275 262.324C383.507 262.54 383.623 262.828 383.623 263.188V265.348H371.335V264.148C371.335 263.916 371.383 263.668 371.479 263.404C371.575 263.14 371.743 262.9 371.983 262.684L377.023 257.608C377.455 257.176 377.831 256.764 378.151 256.372C378.471 255.98 378.735 255.596 378.943 255.22C379.151 254.836 379.307 254.456 379.411 254.08C379.515 253.696 379.567 253.292 379.567 252.868C379.567 252.172 379.399 251.64 379.063 251.272C378.735 250.896 378.231 250.708 377.551 250.708C376.999 250.708 376.531 250.856 376.147 251.152C375.771 251.44 375.511 251.8 375.367 252.232C375.199 252.672 374.979 252.964 374.707 253.108C374.435 253.252 374.047 253.284 373.543 253.204L371.575 252.856C371.703 251.984 371.947 251.224 372.307 250.576C372.675 249.928 373.127 249.388 373.663 248.956C374.207 248.524 374.827 248.204 375.523 247.996C376.219 247.78 376.967 247.672 377.767 247.672C378.631 247.672 379.407 247.8 380.095 248.056C380.791 248.304 381.383 248.652 381.871 249.1C382.359 249.548 382.731 250.084 382.987 250.708C383.251 251.324 383.383 252.004 383.383 252.748C383.383 253.388 383.291 253.98 383.107 254.524C382.931 255.068 382.687 255.588 382.375 256.084C382.063 256.572 381.699 257.048 381.283 257.512C380.875 257.968 380.439 258.432 379.975 258.904L376.555 262.408C376.995 262.272 377.431 262.168 377.863 262.096C378.295 262.024 378.695 261.988 379.063 261.988H382.327ZM397.977 256.6C397.977 258.128 397.813 259.452 397.485 260.572C397.157 261.692 396.701 262.62 396.117 263.356C395.541 264.092 394.853 264.64 394.053 265C393.261 265.36 392.401 265.54 391.473 265.54C390.545 265.54 389.685 265.36 388.893 265C388.109 264.64 387.429 264.092 386.853 263.356C386.277 262.62 385.825 261.692 385.497 260.572C385.177 259.452 385.017 258.128 385.017 256.6C385.017 255.072 385.177 253.748 385.497 252.628C385.825 251.508 386.277 250.58 386.853 249.844C387.429 249.108 388.109 248.564 388.893 248.212C389.685 247.852 390.545 247.672 391.473 247.672C392.401 247.672 393.261 247.852 394.053 248.212C394.853 248.564 395.541 249.108 396.117 249.844C396.701 250.58 397.157 251.508 397.485 252.628C397.813 253.748 397.977 255.072 397.977 256.6ZM394.137 256.6C394.137 255.392 394.061 254.404 393.909 253.636C393.757 252.86 393.553 252.252 393.297 251.812C393.049 251.372 392.765 251.072 392.445 250.912C392.125 250.744 391.801 250.66 391.473 250.66C391.145 250.66 390.821 250.744 390.501 250.912C390.189 251.072 389.909 251.372 389.661 251.812C389.421 252.252 389.225 252.86 389.073 253.636C388.929 254.404 388.857 255.392 388.857 256.6C388.857 257.816 388.929 258.808 389.073 259.576C389.225 260.344 389.421 260.952 389.661 261.4C389.909 261.84 390.189 262.144 390.501 262.312C390.821 262.472 391.145 262.552 391.473 262.552C391.801 262.552 392.125 262.472 392.445 262.312C392.765 262.144 393.049 261.84 393.297 261.4C393.553 260.952 393.757 260.344 393.909 259.576C394.061 258.808 394.137 257.816 394.137 256.6ZM399.743 268.312C399.567 268.168 399.479 267.992 399.479 267.784C399.479 267.704 399.507 267.616 399.563 267.52C399.619 267.432 399.687 267.352 399.767 267.28C399.863 267.184 399.975 267.064 400.103 266.92C400.231 266.784 400.359 266.632 400.487 266.464C400.615 266.296 400.731 266.112 400.835 265.912C400.947 265.712 401.031 265.5 401.087 265.276C400.815 265.252 400.567 265.184 400.343 265.072C400.119 264.96 399.927 264.816 399.767 264.64C399.607 264.456 399.483 264.248 399.395 264.016C399.307 263.776 399.263 263.516 399.263 263.236C399.263 262.98 399.311 262.744 399.407 262.528C399.503 262.304 399.639 262.112 399.815 261.952C399.999 261.784 400.211 261.652 400.451 261.556C400.699 261.46 400.975 261.412 401.279 261.412C401.639 261.412 401.951 261.476 402.215 261.604C402.479 261.724 402.699 261.892 402.875 262.108C403.051 262.316 403.179 262.56 403.259 262.84C403.347 263.112 403.391 263.4 403.391 263.704C403.391 264.104 403.327 264.532 403.199 264.988C403.071 265.436 402.879 265.888 402.623 266.344C402.375 266.8 402.063 267.248 401.687 267.688C401.311 268.128 400.879 268.528 400.391 268.888L399.743 268.312ZM409.553 254.02C409.881 253.956 410.197 253.912 410.501 253.888C410.805 253.864 411.101 253.852 411.389 253.852C412.309 253.852 413.121 253.992 413.825 254.272C414.529 254.552 415.121 254.936 415.601 255.424C416.081 255.904 416.441 256.472 416.681 257.128C416.929 257.776 417.053 258.472 417.053 259.216C417.053 260.152 416.885 261.008 416.549 261.784C416.221 262.552 415.761 263.216 415.169 263.776C414.577 264.336 413.869 264.772 413.045 265.084C412.229 265.388 411.333 265.54 410.357 265.54C409.789 265.54 409.245 265.48 408.725 265.36C408.213 265.24 407.729 265.08 407.273 264.88C406.825 264.672 406.409 264.436 406.025 264.172C405.641 263.9 405.293 263.612 404.981 263.308L406.133 261.772C406.253 261.612 406.393 261.492 406.553 261.412C406.713 261.324 406.885 261.28 407.069 261.28C407.309 261.28 407.533 261.348 407.741 261.484C407.957 261.612 408.189 261.756 408.437 261.916C408.693 262.068 408.989 262.208 409.325 262.336C409.661 262.464 410.077 262.528 410.573 262.528C411.069 262.528 411.493 262.448 411.845 262.288C412.197 262.12 412.481 261.896 412.697 261.616C412.921 261.328 413.081 260.996 413.177 260.62C413.281 260.236 413.333 259.828 413.333 259.396C413.333 258.548 413.093 257.904 412.613 257.464C412.133 257.016 411.453 256.792 410.573 256.792C409.789 256.792 409.021 256.94 408.269 257.236L405.965 256.612L407.453 247.864H416.405V249.4C416.405 249.656 416.365 249.888 416.285 250.096C416.205 250.304 416.077 250.488 415.901 250.648C415.733 250.8 415.509 250.92 415.229 251.008C414.949 251.088 414.613 251.128 414.221 251.128H410.045L409.553 254.02ZM431.383 247.864V249.424C431.383 249.888 431.331 250.264 431.227 250.552C431.123 250.832 431.023 251.068 430.927 251.26L424.855 264.124C424.687 264.46 424.447 264.748 424.135 264.988C423.831 265.228 423.423 265.348 422.911 265.348H420.199L426.439 252.832C426.623 252.496 426.807 252.192 426.991 251.92C427.183 251.64 427.395 251.376 427.627 251.128H419.935C419.823 251.128 419.715 251.108 419.611 251.068C419.515 251.02 419.427 250.96 419.347 250.888C419.275 250.808 419.215 250.72 419.167 250.624C419.119 250.52 419.095 250.416 419.095 250.312V247.864H431.383ZM445.304 247.864V249.424C445.304 249.888 445.252 250.264 445.148 250.552C445.044 250.832 444.944 251.068 444.848 251.26L438.776 264.124C438.608 264.46 438.368 264.748 438.056 264.988C437.752 265.228 437.344 265.348 436.832 265.348H434.12L440.36 252.832C440.544 252.496 440.728 252.192 440.912 251.92C441.104 251.64 441.316 251.376 441.548 251.128H433.856C433.744 251.128 433.636 251.108 433.532 251.068C433.436 251.02 433.348 250.96 433.268 250.888C433.196 250.808 433.136 250.72 433.088 250.624C433.04 250.52 433.016 250.416 433.016 250.312V247.864H445.304Z" fill="#292940"/>
</g>
<defs>
<filter id="filter0_dd" x="303" y="167" width="311" height="280" filterUnits="userSpaceOnUse" color-interpolation-filters="sRGB">
<feFlood flood-opacity="0" result="BackgroundImageFix"/>
<feColorMatrix in="SourceAlpha" type="matrix" values="0 0 0 0 0 0 0 0 0 0 0 0 0 0 0 0 0 0 127 0" result="hardAlpha"/>
<feOffset dx="12" dy="12"/>
<feGaussianBlur stdDeviation="14"/>
<feColorMatrix type="matrix" values="0 0 0 0 0 0 0 0 0 0 0 0 0 0 0 0 0 0 0.05 0"/>
<feBlend mode="normal" in2="BackgroundImageFix" result="effect1_dropShadow"/>
<feColorMatrix in="SourceAlpha" type="matrix" values="0 0 0 0 0 0 0 0 0 0 0 0 0 0 0 0 0 0 127 0" result="hardAlpha"/>
<feOffset dx="-12" dy="-12"/>
<feGaussianBlur stdDeviation="12"/>
<feColorMatrix type="matrix" values="0 0 0 0 0.941176 0 0 0 0 0.941176 0 0 0 0 0.941176 0 0 0 0.6 0"/>
<feBlend mode="normal" in2="effect1_dropShadow" result="effect2_dropShadow"/>
<feBlend mode="normal" in="SourceGraphic" in2="effect2_dropShadow" result="shape"/>
</filter>
</defs>
</svg>
