<svg width="496" height="400" viewBox="0 0 496 400" fill="none" xmlns="http://www.w3.org/2000/svg">
<g clip-path="url(#clip0)">
<path d="M489.711 355.089C487.894 340.481 478.841 326.088 464.91 321.334C470.404 336.37 470.402 352.864 464.906 367.899C462.765 373.689 459.781 379.907 461.795 385.743C463.048 389.374 466.113 392.153 469.539 393.89C472.965 395.627 476.768 396.455 480.522 397.266L481.261 397.877C487.222 384.418 491.527 369.696 489.711 355.089Z" fill="#37BC54" fill-opacity="0.75"/>
<path d="M464.771 321.61C472.884 330.701 477.927 342.116 479.182 354.236C479.499 356.84 479.403 359.478 478.898 362.052C478.326 364.544 477.096 366.837 475.337 368.693C473.732 370.456 471.886 372.074 470.738 374.197C470.166 375.293 469.833 376.496 469.759 377.73C469.685 378.963 469.873 380.198 470.31 381.354C471.324 384.262 473.322 386.633 475.357 388.883C477.616 391.381 480.002 393.94 480.963 397.252C481.079 397.654 481.695 397.45 481.579 397.049C479.908 391.286 474.314 388.013 471.646 382.823C470.402 380.401 469.879 377.59 471.046 375.033C472.066 372.797 473.969 371.127 475.609 369.356C477.351 367.571 478.63 365.386 479.333 362.992C479.967 360.452 480.165 357.822 479.917 355.216C479.452 349.339 478.066 343.571 475.809 338.125C473.268 331.894 469.68 326.144 465.2 321.124C464.923 320.813 464.496 321.302 464.771 321.61Z" fill="#37BC54" fill-opacity="0.75"/>
<path d="M479.008 350.31C481.013 349.823 482.779 348.639 483.992 346.971C485.204 345.302 485.784 343.256 485.628 341.199C485.595 340.783 484.947 340.815 484.98 341.231C485.129 343.147 484.589 345.052 483.456 346.604C482.324 348.156 480.674 349.251 478.804 349.694C478.398 349.79 478.604 350.406 479.008 350.31Z" fill="#37BC54" fill-opacity="0.75"/>
<path d="M476.269 367.906C472.648 365.744 469.975 362.297 468.783 358.252C468.665 357.851 468.05 358.055 468.167 358.455C469.416 362.662 472.204 366.244 475.977 368.486C476.337 368.699 476.627 368.118 476.269 367.906Z" fill="#37BC54" fill-opacity="0.75"/>
<path d="M472.666 332.509C471.93 332.859 471.118 333.02 470.304 332.979C469.489 332.938 468.698 332.695 468.001 332.272C467.644 332.054 467.355 332.635 467.709 332.851C468.482 333.315 469.356 333.582 470.255 333.63C471.155 333.677 472.053 333.504 472.87 333.125C472.95 333.096 473.016 333.037 473.054 332.961C473.092 332.885 473.1 332.797 473.076 332.715C473.049 332.634 472.99 332.566 472.914 332.528C472.837 332.489 472.748 332.482 472.666 332.509Z" fill="#37BC54" fill-opacity="0.75"/>
<path d="M422.445 347.426C422.664 347.568 422.883 347.71 423.102 347.858C426.036 349.787 428.808 351.952 431.392 354.33C431.594 354.511 431.797 354.697 431.994 354.883C438.157 360.679 443.19 367.569 446.838 375.203C448.287 378.242 449.502 381.387 450.474 384.61C451.816 389.062 452.916 393.995 455.572 397.637C455.844 398.02 456.141 398.385 456.459 398.732H480.458C480.513 398.704 480.568 398.682 480.622 398.655L481.581 398.699C481.542 398.529 481.499 398.354 481.46 398.184C481.438 398.086 481.411 397.987 481.389 397.888C481.373 397.823 481.356 397.757 481.345 397.697C481.34 397.675 481.334 397.653 481.329 397.637C481.318 397.576 481.301 397.521 481.29 397.467C481.049 396.487 480.801 395.506 480.546 394.526C480.546 394.521 480.546 394.521 480.54 394.515C478.574 387.052 475.968 379.688 472.327 372.953C472.217 372.75 472.108 372.542 471.987 372.339C470.329 369.313 468.427 366.427 466.298 363.71C465.128 362.226 463.883 360.802 462.569 359.444C459.167 355.942 455.235 352.997 450.917 350.716C442.31 346.172 432.344 344.43 423.145 347.207C422.91 347.278 422.68 347.349 422.445 347.426Z" fill="#37BC54" fill-opacity="0.75"/>
<path d="M422.498 347.73C434.449 350.104 445.348 356.182 453.648 365.103C455.468 366.992 456.98 369.156 458.127 371.515C459.17 373.849 459.569 376.421 459.282 378.961C459.062 381.336 458.562 383.739 458.924 386.125C459.127 387.344 459.585 388.506 460.269 389.536C460.952 390.565 461.846 391.438 462.891 392.098C465.451 393.809 468.474 394.499 471.453 395.07C474.761 395.705 478.207 396.311 480.968 398.378C481.303 398.628 481.672 398.094 481.338 397.844C476.534 394.249 470.097 395.004 464.842 392.466C462.39 391.281 460.28 389.351 459.673 386.607C459.142 384.208 459.655 381.729 459.898 379.327C460.214 376.853 459.92 374.338 459.04 372.004C458.017 369.594 456.591 367.375 454.824 365.444C450.914 361.031 446.335 357.26 441.254 354.27C435.474 350.825 429.148 348.395 422.548 347.083C422.14 347.002 422.093 347.65 422.498 347.73Z" fill="#37BC54" fill-opacity="0.75"/>
<path d="M451.144 362.073C452.452 360.478 453.15 358.469 453.113 356.407C453.077 354.344 452.308 352.361 450.945 350.813C450.668 350.501 450.17 350.916 450.447 351.229C451.719 352.669 452.435 354.515 452.465 356.436C452.495 358.357 451.838 360.225 450.611 361.704C450.345 362.026 450.88 362.393 451.144 362.073H451.144Z" fill="#37BC54" fill-opacity="0.75"/>
<path d="M459.552 377.772C455.359 378.226 451.15 377.083 447.762 374.571C447.427 374.321 447.058 374.855 447.393 375.104C450.923 377.712 455.306 378.892 459.668 378.41C460.084 378.364 459.966 377.726 459.552 377.772V377.772Z" fill="#37BC54" fill-opacity="0.75"/>
<path d="M435.364 351.678C434.987 352.401 434.436 353.019 433.761 353.476C433.086 353.934 432.308 354.216 431.496 354.298C431.08 354.339 431.199 354.977 431.612 354.937C432.508 354.842 433.367 354.529 434.114 354.025C434.861 353.521 435.473 352.843 435.897 352.048C435.944 351.976 435.961 351.89 435.946 351.806C435.93 351.722 435.884 351.647 435.815 351.597C435.744 351.548 435.657 351.529 435.573 351.545C435.488 351.56 435.413 351.608 435.364 351.678Z" fill="#37BC54" fill-opacity="0.75"/>
<path d="M251.765 94.6983H249.576V34.7161C249.576 30.1571 248.678 25.6428 246.933 21.4308C245.189 17.2189 242.631 13.3918 239.408 10.1681C236.184 6.94444 232.357 4.38726 228.145 2.64261C223.933 0.897962 219.419 3.59541e-06 214.86 1.10704e-10H87.7793C78.572 -2.32353e-05 69.7418 3.65753 63.2313 10.168C56.7208 16.6785 53.0632 25.5087 53.0631 34.716V363.783C53.0631 372.99 56.7207 381.821 63.2312 388.331C69.7417 394.842 78.5719 398.499 87.7792 398.499H214.86C224.067 398.499 232.897 394.842 239.408 388.331C245.918 381.821 249.576 372.991 249.576 363.783V137.395H251.765L251.765 94.6983Z" fill="#3F3D56"/>
<path d="M216.26 9.03195H199.672C200.435 10.9022 200.726 12.9314 200.52 14.9407C200.314 16.95 199.617 18.8778 198.49 20.5542C197.364 22.2306 195.842 23.6043 194.059 24.5541C192.277 25.504 190.288 26.0008 188.268 26.001H115.465C113.446 26.0008 111.457 25.504 109.674 24.5541C107.892 23.6043 106.37 22.2306 105.243 20.5542C104.117 18.8777 103.42 16.95 103.214 14.9406C103.007 12.9313 103.299 10.9022 104.061 9.03192H88.5681C85.1635 9.03192 81.7922 9.7025 78.6468 11.0054C75.5013 12.3083 72.6433 14.2179 70.2359 16.6253C67.8285 19.0327 65.9188 21.8907 64.6159 25.0362C63.313 28.1816 62.6425 31.5529 62.6425 34.9575V363.542C62.6425 366.946 63.313 370.318 64.6159 373.463C65.9188 376.608 67.8284 379.466 70.2359 381.874C72.6433 384.281 75.5013 386.191 78.6467 387.494C81.7922 388.797 85.1634 389.467 88.568 389.467H216.26C219.665 389.467 223.036 388.797 226.182 387.494C229.327 386.191 232.185 384.281 234.593 381.874C237 379.467 238.91 376.609 240.213 373.463C241.516 370.318 242.186 366.946 242.186 363.542V34.9575C242.186 31.5529 241.516 28.1816 240.213 25.0362C238.91 21.8908 237 19.0328 234.593 16.6253C232.185 14.2179 229.327 12.3083 226.182 11.0054C223.036 9.70252 219.665 9.03194 216.26 9.03195Z" fill="white"/>
<path d="M170.167 97.3031H124.906V101.506H170.167V97.3031Z" fill="#37BC54"/>
<path d="M203.792 111.843H124.906V116.046H203.792V111.843Z" fill="#CFCFD0"/>
<path d="M203.715 126.383H124.906V130.586H203.715V126.383Z" fill="#CFCFD0"/>
<path d="M115.527 97.3655H81.9015V130.991H115.527V97.3655Z" fill="#37BC54"/>
<path d="M170.167 185.569H124.906V189.772H170.167V185.569Z" fill="#37BC54"/>
<path d="M203.792 200.109H124.906V204.312H203.792V200.109Z" fill="#CFCFD0"/>
<path d="M203.715 214.649H124.906V218.852H203.715V214.649Z" fill="#CFCFD0"/>
<path d="M115.527 185.631H81.9015V219.256H115.527V185.631Z" fill="#37BC54"/>
<path d="M170.167 273.835H124.906V278.038H170.167V273.835Z" fill="#37BC54"/>
<path d="M203.792 288.375H124.906V292.578H203.792V288.375Z" fill="#CFCFD0"/>
<path d="M203.715 302.914H124.906V307.117H203.715V302.914Z" fill="#CFCFD0"/>
<path d="M115.527 273.897H81.9015V307.522H115.527V273.897Z" fill="#37BC54"/>
<path d="M397.269 391.998L390.566 392.367L385.953 366.689L395.845 366.145L397.269 391.998Z" fill="#F53A3A" fill-opacity="0.5"/>
<path d="M399.336 398.401L377.724 399.591L377.708 399.318C377.586 397.087 378.354 394.898 379.845 393.234C381.335 391.569 383.426 390.565 385.657 390.442L385.658 390.442L398.858 389.715L399.336 398.401Z" fill="#09093D"/>
<path d="M256.741 288.724L255.873 282.067L281.137 275.553L282.417 285.378L256.741 288.724Z" fill="#F53A3A" fill-opacity="0.5"/>
<path d="M250.51 291.262L247.713 269.798L247.984 269.763C250.2 269.474 252.439 270.078 254.21 271.44C255.981 272.803 257.138 274.813 257.427 277.028L257.427 277.029L259.136 290.138L250.51 291.262Z" fill="#09093D"/>
<path d="M341.477 246.653C341.77 246.731 342.056 246.833 342.332 246.956L365.305 232.476L365.059 225.883L374.96 224.212L376.528 235.841C376.655 236.78 376.474 237.735 376.012 238.563C375.549 239.39 374.831 240.045 373.965 240.43L345.727 252.964C345.575 254.121 345.075 255.205 344.292 256.07C343.509 256.936 342.481 257.543 341.345 257.81C340.209 258.078 339.018 257.993 337.931 257.567C336.845 257.141 335.913 256.394 335.261 255.426C334.609 254.458 334.267 253.315 334.281 252.147C334.295 250.98 334.664 249.845 335.339 248.893C336.013 247.94 336.962 247.216 338.058 246.816C339.155 246.416 340.347 246.359 341.477 246.653Z" fill="#F53A3A" fill-opacity="0.5"/>
<path d="M364.255 231.557C363.981 231.333 363.759 231.052 363.604 230.734C363.448 230.416 363.363 230.068 363.355 229.714L363.049 217.351C362.739 215.566 363.149 213.731 364.189 212.249C365.23 210.766 366.816 209.756 368.599 209.441C370.383 209.126 372.219 209.53 373.705 210.567C375.191 211.603 376.205 213.185 376.526 214.968L380.418 226.749C380.529 227.085 380.567 227.441 380.528 227.793C380.489 228.145 380.374 228.484 380.192 228.788C380.01 229.092 379.765 229.353 379.473 229.553C379.181 229.753 378.85 229.888 378.501 229.949L366.24 232.08C365.891 232.141 365.533 232.125 365.191 232.035C364.848 231.945 364.529 231.782 364.255 231.557Z" fill="#E4E4E4"/>
<path d="M383.355 197.39C392.563 197.39 400.028 189.925 400.028 180.717C400.028 171.509 392.563 164.044 383.355 164.044C374.147 164.044 366.682 171.509 366.682 180.717C366.682 189.925 374.147 197.39 383.355 197.39Z" fill="#09093D"/>
<path d="M389.187 170.068C392.998 170.068 396.086 166.979 396.086 163.169C396.086 159.359 392.998 156.27 389.187 156.27C385.377 156.27 382.288 159.359 382.288 163.169C382.288 166.979 385.377 170.068 389.187 170.068Z" fill="#09093D"/>
<path d="M398.386 159.432C398.386 157.727 397.754 156.082 396.613 154.815C395.472 153.547 393.902 152.748 392.206 152.57C392.445 152.545 392.684 152.533 392.924 152.533C394.754 152.533 396.509 153.26 397.803 154.553C399.097 155.847 399.824 157.602 399.824 159.432C399.824 161.262 399.097 163.016 397.803 164.31C396.509 165.604 394.754 166.331 392.924 166.331C392.684 166.331 392.445 166.318 392.206 166.294C393.902 166.116 395.472 165.316 396.613 164.049C397.754 162.782 398.386 161.137 398.386 159.432Z" fill="#09093D"/>
<path d="M383.348 198.845C389.17 198.845 393.89 194.125 393.89 188.302C393.89 182.48 389.17 177.76 383.348 177.76C377.525 177.76 372.805 182.48 372.805 188.302C372.805 194.125 377.525 198.845 383.348 198.845Z" fill="#FFB8B8"/>
<path d="M400.897 261.051C400.897 261.051 400.395 273.602 398.387 280.129C396.378 286.655 399.893 379.028 398.136 381.288C396.378 383.547 388.095 382.794 388.095 382.794L380.411 334.667C380.411 334.667 379.058 283.643 360.483 282.388C341.908 281.133 269.365 288.161 269.365 288.161L267.859 277.869L306.766 269.335C306.766 269.335 342.41 257.035 361.989 260.298C381.569 263.562 400.897 261.051 400.897 261.051Z" fill="#09093D"/>
<path d="M398.638 200.306C400.646 198.8 405.666 200.808 405.666 200.808L411.188 217.124C411.188 217.124 408.427 231.18 405.917 238.962C403.407 246.743 398.571 281.143 399.575 282.65C400.579 284.156 383.326 271.845 373.034 268.08C362.742 264.314 360.483 260.047 360.483 260.047C360.483 260.047 371.779 243.982 368.014 236.452C364.249 228.921 367.261 220.387 367.261 220.387L365.755 211.852L374.289 207.083C374.289 207.083 396.629 201.812 398.638 200.306Z" fill="#E4E4E4"/>
<path d="M381.416 184.081C387.766 184.081 392.914 180.992 392.914 177.182C392.914 173.372 387.766 170.283 381.416 170.283C375.065 170.283 369.917 173.372 369.917 177.182C369.917 180.992 375.065 184.081 381.416 184.081Z" fill="#09093D"/>
<path d="M447.491 204.696C447.366 204.972 447.263 205.257 447.183 205.55L421.424 214.144L416.48 209.777L408.913 216.377L416.914 224.959C417.561 225.652 418.415 226.117 419.348 226.284C420.281 226.451 421.243 226.311 422.09 225.884L449.679 211.983C450.671 212.599 451.826 212.898 452.992 212.841C454.158 212.784 455.279 212.374 456.206 211.664C457.133 210.955 457.821 209.98 458.181 208.869C458.54 207.759 458.552 206.565 458.217 205.447C457.881 204.329 457.213 203.34 456.301 202.611C455.39 201.882 454.278 201.448 453.114 201.367C451.949 201.285 450.788 201.56 449.783 202.155C448.779 202.749 447.979 203.636 447.491 204.696V204.696Z" fill="#F53A3A" fill-opacity="0.5"/>
<path d="M420.525 214.617L411.107 222.751C410.839 222.983 410.525 223.154 410.185 223.253C409.845 223.351 409.487 223.376 409.137 223.324C408.787 223.272 408.452 223.146 408.155 222.953C407.858 222.76 407.606 222.506 407.416 222.207L400.77 211.73C399.593 210.352 399.011 208.564 399.151 206.758C399.29 204.951 400.141 203.274 401.516 202.094C402.89 200.914 404.677 200.327 406.483 200.462C408.29 200.597 409.97 201.443 411.154 202.815L420.523 210.886C420.792 211.117 421.007 211.403 421.154 211.725C421.302 212.047 421.379 212.397 421.379 212.751C421.379 213.105 421.303 213.455 421.155 213.777C421.008 214.099 420.793 214.385 420.525 214.617L420.525 214.617Z" fill="#E4E4E4"/>
<path d="M495.256 400H0.651973C0.479388 400 0.314046 399.931 0.192187 399.808C0.070327 399.686 0.00189209 399.521 0.00189209 399.348C0.00189209 399.176 0.070327 399.01 0.192187 398.888C0.314046 398.766 0.479388 398.697 0.651973 398.696H495.256C495.429 398.696 495.595 398.765 495.717 398.887C495.839 399.009 495.908 399.175 495.908 399.348C495.908 399.521 495.839 399.687 495.717 399.809C495.595 399.931 495.429 400 495.256 400Z" fill="#3F3D56"/>
</g>
<defs>
<clipPath id="clip0">
<rect width="495.908" height="400" fill="white"/>
</clipPath>
</defs>
</svg>
