<svg width="489" height="400" viewBox="0 0 489 400" fill="none" xmlns="http://www.w3.org/2000/svg">
<g clip-path="url(#clip0)">
<path d="M363.17 313.505H211.835C209.419 313.502 207.103 312.541 205.394 310.833C203.686 309.124 202.725 306.808 202.722 304.392V195.586C202.725 193.169 203.686 190.853 205.394 189.145C207.103 187.436 209.419 186.475 211.835 186.472H363.17C365.586 186.475 367.902 187.436 369.61 189.145C371.319 190.853 372.28 193.169 372.283 195.586V304.392C372.28 306.808 371.319 309.124 369.61 310.833C367.902 312.541 365.586 313.502 363.17 313.505Z" fill="#E6E6E6"/>
<path d="M214.633 306.24H360.372C361.544 306.24 362.668 305.775 363.496 304.946C364.325 304.117 364.791 302.993 364.791 301.822V198.155C364.791 196.983 364.325 195.86 363.496 195.031C362.668 194.202 361.544 193.737 360.372 193.737H214.633C213.461 193.737 212.337 194.202 211.508 195.031C210.68 195.86 210.214 196.983 210.214 198.155V301.822C210.214 302.993 210.68 304.117 211.508 304.946C212.337 305.775 213.461 306.24 214.633 306.24Z" fill="white"/>
<path d="M160.447 167.431H9.11318C6.69706 167.428 4.38067 166.467 2.6722 164.759C0.963742 163.051 0.00272926 160.734 0 158.318V49.5121C0.0027278 47.096 0.963742 44.7796 2.6722 43.0711C4.38067 41.3627 6.69706 40.4017 9.11318 40.3989H160.447C162.863 40.4017 165.18 41.3627 166.888 43.0711C168.597 44.7796 169.558 47.096 169.56 49.5121V158.318C169.558 160.734 168.597 163.051 166.888 164.759C165.18 166.467 162.863 167.428 160.447 167.431Z" fill="#E6E6E6"/>
<path d="M11.9105 160.167H157.65C158.822 160.167 159.946 159.701 160.774 158.873C161.603 158.044 162.068 156.92 162.068 155.748V52.082C162.068 50.9101 161.603 49.7862 160.774 48.9576C159.946 48.129 158.822 47.6635 157.65 47.6635H11.9105C10.7386 47.6635 9.61476 48.129 8.78612 48.9576C7.95749 49.7862 7.49197 50.9101 7.49197 52.082V155.748C7.49197 156.92 7.95749 158.044 8.78612 158.873C9.61476 159.701 10.7386 160.167 11.9105 160.167Z" fill="white"/>
<path d="M343 225.948H249.907C249.47 225.948 249.038 226.034 248.635 226.201C248.231 226.368 247.865 226.613 247.556 226.922C247.247 227.231 247.002 227.597 246.835 228C246.668 228.404 246.582 228.836 246.582 229.273C246.582 229.709 246.668 230.142 246.835 230.545C247.002 230.948 247.247 231.315 247.556 231.624C247.865 231.932 248.231 232.177 248.635 232.344C249.038 232.511 249.47 232.597 249.907 232.597H343C343.882 232.597 344.727 232.247 345.351 231.624C345.975 231 346.325 230.155 346.325 229.273C346.325 228.391 345.975 227.545 345.351 226.922C344.727 226.298 343.882 225.948 343 225.948Z" fill="#E6E6E6"/>
<path d="M249.907 246.408C249.47 246.408 249.038 246.494 248.635 246.661C248.231 246.828 247.865 247.073 247.556 247.382C247.247 247.69 247.002 248.057 246.835 248.46C246.668 248.864 246.582 249.296 246.582 249.733C246.582 250.169 246.668 250.602 246.835 251.005C247.002 251.408 247.247 251.775 247.556 252.084C247.865 252.392 248.231 252.637 248.635 252.804C249.038 252.971 249.47 253.057 249.907 253.057H343C343.882 253.057 344.727 252.707 345.351 252.084C345.975 251.46 346.325 250.614 346.325 249.733C346.325 248.851 345.975 248.005 345.351 247.382C344.727 246.758 343.882 246.408 343 246.408H249.907Z" fill="#E6E6E6"/>
<path d="M249.907 266.868C249.025 266.868 248.18 267.218 247.556 267.842C246.932 268.465 246.582 269.311 246.582 270.193C246.582 271.074 246.932 271.92 247.556 272.544C248.18 273.167 249.025 273.517 249.907 273.517H343C343.882 273.517 344.727 273.167 345.351 272.544C345.975 271.92 346.325 271.074 346.325 270.193C346.325 269.311 345.975 268.465 345.351 267.842C344.727 267.218 343.882 266.868 343 266.868H249.907Z" fill="#E6E6E6"/>
<path d="M232.26 233.621C234.52 233.621 236.352 231.788 236.352 229.529C236.352 227.269 234.52 225.437 232.26 225.437C230 225.437 228.168 227.269 228.168 229.529C228.168 231.788 230 233.621 232.26 233.621Z" fill="#FAD34B"/>
<path d="M232.26 254.081C234.52 254.081 236.352 252.248 236.352 249.989C236.352 247.729 234.52 245.896 232.26 245.896C230 245.896 228.168 247.729 228.168 249.989C228.168 252.248 230 254.081 232.26 254.081Z" fill="#E6E6E6"/>
<path d="M232.26 274.54C234.52 274.54 236.352 272.708 236.352 270.448C236.352 268.189 234.52 266.356 232.26 266.356C230 266.356 228.168 268.189 228.168 270.448C228.168 272.708 230 274.54 232.26 274.54Z" fill="#E6E6E6"/>
<path d="M305.916 229.273C305.916 229.709 305.83 230.142 305.663 230.545C305.496 230.948 305.251 231.315 304.942 231.624C304.634 231.932 304.267 232.177 303.864 232.344C303.46 232.512 303.028 232.598 302.591 232.598H250.027C249.206 232.61 248.408 232.324 247.78 231.795C247.152 231.265 246.737 230.526 246.611 229.715C246.549 229.245 246.588 228.768 246.725 228.314C246.862 227.861 247.095 227.442 247.407 227.085C247.718 226.729 248.103 226.443 248.534 226.247C248.965 226.051 249.433 225.949 249.907 225.948H302.591C303.473 225.948 304.319 226.298 304.942 226.922C305.566 227.545 305.916 228.391 305.916 229.273V229.273Z" fill="#FAD34B"/>
<path d="M287.502 172.496C294.847 172.496 300.801 166.542 300.801 159.197C300.801 151.852 294.847 145.898 287.502 145.898C280.157 145.898 274.203 151.852 274.203 159.197C274.203 166.542 280.157 172.496 287.502 172.496Z" fill="#E6E6E6"/>
<path d="M294.066 160.262C294.654 156.637 292.192 153.222 288.567 152.634C284.942 152.045 281.527 154.507 280.939 158.132C280.35 161.757 282.812 165.173 286.437 165.761C290.062 166.349 293.478 163.887 294.066 160.262Z" fill="white"/>
<path d="M22.684 100.756C21.8101 100.756 20.972 101.103 20.3541 101.721C19.7362 102.339 19.3891 103.177 19.3891 104.051C19.3891 104.925 19.7362 105.763 20.3541 106.381C20.972 106.999 21.8101 107.346 22.684 107.346H146.876C147.75 107.346 148.588 106.999 149.206 106.381C149.824 105.763 150.171 104.925 150.171 104.051C150.171 103.177 149.824 102.339 149.206 101.721C148.588 101.103 147.75 100.756 146.876 100.756H22.684Z" fill="#E6E6E6"/>
<path d="M22.684 121.032C21.8101 121.032 20.972 121.379 20.3541 121.997C19.7362 122.615 19.3891 123.453 19.3891 124.327C19.3891 125.201 19.7362 126.039 20.3541 126.657C20.972 127.275 21.8101 127.622 22.684 127.622H146.876C147.75 127.622 148.588 127.275 149.206 126.657C149.824 126.039 150.171 125.201 150.171 124.327C150.171 123.453 149.824 122.615 149.206 121.997C148.588 121.379 147.75 121.032 146.876 121.032H22.684Z" fill="#E6E6E6"/>
<path d="M78.1904 142.323C77.3166 142.323 76.4785 142.67 75.8606 143.288C75.2427 143.905 74.8955 144.744 74.8955 145.617C74.8955 146.491 75.2427 147.329 75.8606 147.947C76.4785 148.565 77.3166 148.912 78.1904 148.912H91.37C92.2439 148.912 93.082 148.565 93.6999 147.947C94.3178 147.329 94.6649 146.491 94.6649 145.617C94.6649 144.744 94.3178 143.905 93.6999 143.288C93.082 142.67 92.2439 142.323 91.37 142.323H78.1904Z" fill="#FAD34B"/>
<path d="M67.1196 58.918C66.8508 58.9182 66.5931 59.0251 66.4031 59.2152C66.213 59.4053 66.1061 59.663 66.1058 59.9318V85.6675C66.1061 85.9363 66.213 86.194 66.4031 86.3841C66.5931 86.5742 66.8508 86.6811 67.1196 86.6813H102.441C102.71 86.6811 102.967 86.5742 103.157 86.3841C103.347 86.194 103.454 85.9363 103.455 85.6675V59.9318C103.454 59.663 103.347 59.4053 103.157 59.2152C102.967 59.0251 102.71 58.9182 102.441 58.918L67.1196 58.918Z" fill="#FAD34B"/>
<path d="M84.7802 75.5293C87.8597 75.5293 90.3562 73.0329 90.3562 69.9533C90.3562 66.8738 87.8597 64.3773 84.7802 64.3773C81.7007 64.3773 79.2042 66.8738 79.2042 69.9533C79.2042 73.0329 81.7007 75.5293 84.7802 75.5293Z" fill="white"/>
<path d="M93.9046 84.1468C93.9066 85.028 93.698 85.897 93.2963 86.6813H76.2642C75.8301 85.8312 75.6216 84.8839 75.6586 83.9301C75.6956 82.9763 75.9768 82.048 76.4753 81.2341C76.9739 80.4201 77.6731 79.7478 78.5059 79.2815C79.3387 78.8151 80.2774 78.5704 81.2319 78.5708H88.3286C89.8066 78.57 91.2244 79.1563 92.2701 80.2008C93.3158 81.2453 93.9038 82.6625 93.9046 84.1405V84.1468Z" fill="white"/>
<path d="M84.7802 75.5293C87.8597 75.5293 90.3562 73.0329 90.3562 69.9533C90.3562 66.8738 87.8597 64.3773 84.7802 64.3773C81.7007 64.3773 79.2042 66.8738 79.2042 69.9533C79.2042 73.0329 81.7007 75.5293 84.7802 75.5293Z" fill="white"/>
<path d="M93.9046 84.1468C93.9066 85.028 93.698 85.897 93.2963 86.6813H76.2642C75.8301 85.8312 75.6216 84.8839 75.6586 83.9301C75.6956 82.9763 75.9768 82.048 76.4753 81.2341C76.9739 80.4201 77.6731 79.7478 78.5059 79.2815C79.3387 78.8151 80.2774 78.5704 81.2319 78.5708H88.3286C89.8066 78.57 91.2244 79.1563 92.2701 80.2008C93.3158 81.2453 93.9038 82.6625 93.9046 84.1405V84.1468Z" fill="white"/>
<path d="M84.7803 26.3592C92.0592 26.3592 97.9599 20.4585 97.9599 13.1796C97.9599 5.90071 92.0592 0 84.7803 0C77.5014 0 71.6006 5.90071 71.6006 13.1796C71.6006 20.4585 77.5014 26.3592 84.7803 26.3592Z" fill="#E6E6E6"/>
<path d="M84.7802 19.7695C88.4197 19.7695 91.37 16.8191 91.37 13.1796C91.37 9.5402 88.4197 6.58984 84.7802 6.58984C81.1408 6.58984 78.1904 9.5402 78.1904 13.1796C78.1904 16.8191 81.1408 19.7695 84.7802 19.7695Z" fill="#FAD34B"/>
<path d="M413.197 392.828L406.883 392.827L403.88 368.473L413.199 368.474L413.197 392.828Z" fill="#FFB8B8"/>
<path d="M402.373 391.023H414.55V398.691H394.705C394.705 397.684 394.904 396.687 395.289 395.757C395.674 394.826 396.239 393.981 396.951 393.269C397.663 392.557 398.508 391.992 399.438 391.607C400.369 391.222 401.366 391.023 402.373 391.023Z" fill="#3F3D56"/>
<path d="M447.232 392.828L440.917 392.827L437.914 368.473L447.234 368.474L447.232 392.828Z" fill="#FFB8B8"/>
<path d="M436.407 391.023H448.584V398.691H428.74C428.74 397.684 428.938 396.687 429.323 395.757C429.709 394.826 430.273 393.981 430.985 393.269C431.697 392.557 432.542 391.992 433.473 391.607C434.403 391.222 435.4 391.023 436.407 391.023Z" fill="#3F3D56"/>
<path d="M428.739 219.691C436.231 219.691 442.305 213.618 442.305 206.126C442.305 198.634 436.231 192.561 428.739 192.561C421.247 192.561 415.174 198.634 415.174 206.126C415.174 213.618 421.247 219.691 428.739 219.691Z" fill="#FFB8B8"/>
<path d="M382.355 294.595C382.449 293.843 382.708 293.122 383.111 292.482C383.515 291.841 384.054 291.297 384.691 290.887C385.328 290.477 386.046 290.212 386.797 290.111C387.547 290.009 388.31 290.073 389.033 290.298L396.614 281.21L403.261 284.47L392.374 297.154C391.916 298.343 391.037 299.323 389.904 299.907C388.771 300.492 387.463 300.64 386.228 300.325C384.993 300.009 383.916 299.252 383.202 298.196C382.489 297.14 382.187 295.858 382.355 294.595Z" fill="#FFB8B8"/>
<path d="M447.601 303.786C447.278 303.101 447.109 302.354 447.106 301.597C447.103 300.84 447.266 300.091 447.584 299.404C447.902 298.716 448.366 298.107 448.944 297.619C449.523 297.13 450.202 296.775 450.933 296.577L452.455 284.84L459.812 284.026L457.43 300.57C457.681 301.82 457.465 303.118 456.822 304.219C456.18 305.32 455.156 306.147 453.944 306.544C452.733 306.94 451.418 306.878 450.249 306.37C449.08 305.862 448.138 304.942 447.601 303.786L447.601 303.786Z" fill="#FFB8B8"/>
<path d="M440.076 231.748C440.797 230.822 441.75 230.102 442.839 229.662C443.927 229.222 445.112 229.076 446.275 229.241C447.437 229.405 448.536 229.873 449.46 230.597C450.384 231.322 451.1 232.277 451.537 233.367L462.655 261.115C463.792 263.951 464.154 267.037 463.705 270.059L460.084 294.448C460.037 294.763 459.923 295.064 459.749 295.33C459.575 295.597 459.346 295.823 459.077 295.993C458.808 296.162 458.505 296.272 458.19 296.314C457.875 296.356 457.554 296.329 457.25 296.236L452.478 294.771C451.984 294.619 451.559 294.299 451.276 293.866C450.994 293.433 450.872 292.915 450.932 292.401C452.617 278.043 450.391 263.496 444.49 250.298L439.249 238.573C438.754 237.467 438.57 236.248 438.716 235.046C438.862 233.844 439.332 232.704 440.076 231.748Z" fill="#FAD34B"/>
<path d="M432.042 219.691C434.084 219.735 436.112 219.347 437.993 218.551C439.873 217.756 441.565 216.571 442.955 215.076C444.345 213.58 445.404 211.807 446.06 209.873C446.716 207.94 446.956 205.889 446.764 203.856C446.571 201.823 445.95 199.854 444.942 198.077C443.935 196.301 442.562 194.759 440.916 193.551C439.269 192.343 437.385 191.497 435.389 191.069C433.392 190.641 431.327 190.64 429.33 191.067C426.347 189.256 422.879 188.037 419.402 188.347C415.926 188.657 412.488 190.721 411.189 193.96C409.889 197.199 411.285 201.468 414.517 202.784C416.59 203.628 418.93 203.219 421.141 202.878C423.352 202.538 425.765 202.316 427.689 203.457C429.614 204.598 430.479 207.658 428.756 209.084C427.842 209.871 427.189 210.916 426.885 212.083C426.581 213.249 426.639 214.48 427.052 215.613C427.918 217.853 430.283 219.653 432.042 219.691Z" fill="#3F3D56"/>
<path d="M448.873 294.058L451.279 385.378C451.287 385.682 451.232 385.985 451.118 386.267C451.003 386.549 450.831 386.805 450.613 387.017C450.395 387.23 450.136 387.395 449.851 387.503C449.566 387.61 449.262 387.658 448.958 387.642L441.031 387.238C440.525 387.212 440.044 387.013 439.667 386.675C439.29 386.336 439.041 385.879 438.962 385.378L429.533 326.066C429.493 325.812 429.365 325.58 429.172 325.41C428.98 325.24 428.734 325.143 428.477 325.135C428.22 325.127 427.968 325.209 427.765 325.367C427.562 325.524 427.42 325.747 427.364 325.998L414.602 383.106C414.533 383.411 414.401 383.698 414.214 383.949C414.026 384.199 413.787 384.407 413.514 384.558C413.24 384.709 412.937 384.8 412.625 384.826C412.314 384.851 412 384.81 411.705 384.705L403.838 384.225C403.383 384.063 402.994 383.757 402.729 383.352C402.465 382.948 402.341 382.468 402.375 381.986L409.242 293.194L448.873 294.058Z" fill="#3F3D56"/>
<path d="M452.735 250.685C454.062 236.846 443.887 224.329 430.02 223.345C424.045 222.92 414.769 222.769 411.712 230.6C402.5 254.192 418.625 253.618 413.07 274.058C407.514 294.497 402.607 295.669 410.23 297.145C417.853 298.621 452.132 307.333 450.725 292.947C449.86 284.104 451.411 264.489 452.735 250.685Z" fill="#FAD34B"/>
<path d="M413.343 228.201C414.437 227.777 415.625 227.649 416.785 227.831C417.945 228.013 419.036 228.497 419.949 229.235C420.862 229.974 421.564 230.94 421.984 232.036C422.404 233.132 422.528 234.32 422.342 235.479L418.012 262.537C417.272 267.164 415.315 271.512 412.343 275.134L398.281 292.269C398.079 292.515 397.827 292.714 397.541 292.854C397.255 292.993 396.942 293.069 396.624 293.076C396.306 293.083 395.99 293.022 395.698 292.896C395.406 292.77 395.144 292.582 394.932 292.346L391.591 288.637C391.246 288.252 391.045 287.759 391.026 287.243C391.006 286.726 391.168 286.219 391.483 285.81L392.467 284.533C400.647 273.917 405.808 261.288 407.404 247.981L409.125 233.63C409.27 232.427 409.738 231.287 410.481 230.33C411.224 229.374 412.213 228.638 413.343 228.201Z" fill="#FAD34B"/>
<path d="M487.532 400H345.035C344.889 400 344.748 399.942 344.645 399.838C344.541 399.735 344.483 399.594 344.483 399.448C344.483 399.301 344.541 399.161 344.645 399.057C344.748 398.953 344.889 398.895 345.035 398.895H487.532C487.679 398.895 487.819 398.953 487.923 399.057C488.026 399.161 488.085 399.301 488.085 399.448C488.085 399.594 488.026 399.735 487.923 399.838C487.819 399.942 487.679 400 487.532 400Z" fill="#CCCCCC"/>
</g>
<defs>
<clipPath id="clip0">
<rect width="488.085" height="400" fill="white"/>
</clipPath>
</defs>
</svg>
