<svg width="116" height="116" viewBox="0 0 116 116" fill="none" xmlns="http://www.w3.org/2000/svg">
<g filter="url(#filter0_dd)">
<circle cx="58" cy="58" r="16" fill="#FAD34B" fill-opacity="0.25"/>
</g>
<path d="M52.32 64.4864L52 64.9792L52.5536 66H62.384C62.9781 66 63.5478 65.764 63.9679 65.3439C64.388 64.9238 64.624 64.3541 64.624 63.76V62.8H62.704V63.76C62.704 63.8449 62.6703 63.9263 62.6103 63.9863C62.5503 64.0463 62.4689 64.08 62.384 64.08H54.9216L59.0816 58L54.9216 51.92H62.384C62.4689 51.92 62.5503 51.9537 62.6103 52.0137C62.6703 52.0737 62.704 52.1551 62.704 52.24V53.2H64.624V52.24C64.624 51.6459 64.388 51.0762 63.9679 50.6561C63.5478 50.236 62.9781 50 62.384 50H53.1296H52.544L52 51.0336L56.7424 58L52.32 64.4864Z" fill="#FAD34B"/>
<defs>
<filter id="filter0_dd" x="0" y="0" width="116" height="116" filterUnits="userSpaceOnUse" color-interpolation-filters="sRGB">
<feFlood flood-opacity="0" result="BackgroundImageFix"/>
<feColorMatrix in="SourceAlpha" type="matrix" values="0 0 0 0 0 0 0 0 0 0 0 0 0 0 0 0 0 0 127 0" result="hardAlpha"/>
<feOffset dx="10" dy="10"/>
<feGaussianBlur stdDeviation="16"/>
<feColorMatrix type="matrix" values="0 0 0 0 0.941176 0 0 0 0 0.941176 0 0 0 0 0.941176 0 0 0 0.6 0"/>
<feBlend mode="normal" in2="BackgroundImageFix" result="effect1_dropShadow"/>
<feColorMatrix in="SourceAlpha" type="matrix" values="0 0 0 0 0 0 0 0 0 0 0 0 0 0 0 0 0 0 127 0" result="hardAlpha"/>
<feOffset dx="-10" dy="-10"/>
<feGaussianBlur stdDeviation="16"/>
<feColorMatrix type="matrix" values="0 0 0 0 0.941176 0 0 0 0 0.941176 0 0 0 0 0.941176 0 0 0 0.6 0"/>
<feBlend mode="normal" in2="effect1_dropShadow" result="effect2_dropShadow"/>
<feBlend mode="normal" in="SourceGraphic" in2="effect2_dropShadow" result="shape"/>
</filter>
</defs>
</svg>
