<svg width="536" height="366" viewBox="0 0 536 366" fill="none" xmlns="http://www.w3.org/2000/svg">
<path d="M459.347 152.819C466.722 160.554 474.95 161.788 484.031 156.522C480.22 150.415 479.313 143.772 480.329 136.774H462.638C463.422 142.923 463.211 148.649 459.347 152.819Z" fill="#FFB8B8"/>
<path d="M488.556 355.228L498.019 350.292L502.133 298.044V270.48L480.328 270.068L486.499 297.632L488.556 355.228Z" fill="#FFB8B8"/>
<path d="M461.128 355.228L451.666 350.292L447.552 298.044V270.48L469.356 270.068L463.185 297.632L461.128 355.228Z" fill="#FFB8B8"/>
<path d="M446.594 276.239L469.632 274.182L473.335 253.201L477.86 273.771L502.955 272.125C503.504 262.129 502.111 251.841 498.841 241.27L443.714 240.036L446.594 276.239Z" fill="#292940"/>
<path d="M422.648 197.442L394.935 176.103C394.647 175.881 394.331 175.7 393.995 175.563L389.967 173.924C386.732 172.608 380.57 168.23 383.575 163.722C385.998 160.087 395.273 166.598 396.414 169.01C396.775 169.769 397.366 170.395 398.104 170.797L403.735 173.884C403.872 173.959 404.014 174.026 404.158 174.084L425.6 182.775C426.194 183.016 426.837 183.112 427.476 183.054C428.115 182.996 428.731 182.787 429.272 182.444L433.16 179.979C433.713 179.628 434.343 179.418 434.996 179.365C435.649 179.313 436.304 179.42 436.906 179.678C437.508 179.936 438.038 180.337 438.45 180.846C438.863 181.355 439.145 181.957 439.272 182.6L440.557 189.084C440.742 190.017 440.59 190.986 440.129 191.819C439.668 192.652 438.928 193.294 438.038 193.633L426.543 198.015C425.899 198.261 425.202 198.337 424.521 198.237C423.839 198.136 423.194 197.863 422.648 197.442Z" fill="#FFB8B8"/>
<path d="M427.796 181.894C435.468 179.837 434.663 190.556 440.516 195.827L452.026 186.74L445.359 154.465C443.571 154.976 441.926 155.896 440.554 157.152C439.182 158.408 438.121 159.966 437.455 161.703L427.796 181.894Z" fill="#4B4DED"/>
<path d="M442.068 242.093H500.076C490.688 216.794 491.602 190.775 499.595 164.26C499.73 163.82 499.706 163.346 499.529 162.922C499.351 162.497 499.031 162.148 498.624 161.934L481.974 153.23C475.438 157.483 468.414 156.176 460.993 150.351L442.891 155.287C447.819 184.883 447.959 213.871 442.068 242.093Z" fill="#4B4DED"/>
<path d="M456.573 364.891L432.399 365.915C431.346 365.96 430.314 365.614 429.502 364.943C428.689 364.273 428.153 363.325 427.998 362.283C427.84 361.231 428.081 360.158 428.674 359.274C429.267 358.39 430.169 357.76 431.202 357.507L435.302 356.502L451.418 347.161C453.805 349.633 457.093 351.724 461.112 353.504L461.159 360.071C461.168 361.312 460.695 362.508 459.839 363.407C458.984 364.306 457.813 364.838 456.573 364.891Z" fill="#292940"/>
<path d="M534.812 366H0.194458V364.679H535.052L534.812 366Z" fill="#09093D"/>
<path d="M492.911 364.524L517.085 365.548C518.138 365.593 519.169 365.247 519.982 364.576C520.795 363.906 521.33 362.958 521.486 361.916C521.644 360.864 521.402 359.791 520.809 358.907C520.217 358.023 519.315 357.393 518.282 357.14L514.181 356.135L498.066 346.794C495.678 349.266 492.391 351.357 488.372 353.137L488.325 359.704C488.316 360.945 488.789 362.141 489.645 363.04C490.5 363.939 491.671 364.471 492.911 364.524Z" fill="#292940"/>
<path d="M469.632 144.18C476.903 144.18 482.797 138.285 482.797 131.015C482.797 123.744 476.903 117.85 469.632 117.85C462.361 117.85 456.467 123.744 456.467 131.015C456.467 138.285 462.361 144.18 469.632 144.18Z" fill="#FFB8B8"/>
<path d="M490.202 237.979L485.853 246.436C485.469 247.182 485.248 248.001 485.203 248.839C485.158 249.677 485.291 250.515 485.594 251.298C485.896 252.081 486.361 252.791 486.957 253.381C487.553 253.972 488.268 254.43 489.053 254.724C489.885 255.036 490.776 255.158 491.661 255.08C492.546 255.003 493.402 254.728 494.166 254.276C494.931 253.824 495.585 253.207 496.08 252.47C496.575 251.732 496.898 250.893 497.026 250.014L498.841 237.568L505.424 206.301L505.012 190.668H491.848C496.338 202.296 494.11 219.446 490.202 237.979Z" fill="#FFB8B8"/>
<path d="M489.791 192.314H507.481L504.913 172.913C504.565 170.282 503.563 167.78 502 165.635C500.436 163.491 498.36 161.772 495.962 160.636L489.791 192.314Z" fill="#4B4DED"/>
<path d="M483.628 123.763C483.891 122.005 483.781 120.21 483.304 118.497C482.827 116.784 481.995 115.191 480.861 113.821C478.615 111.163 474.85 108.988 468.604 110.014C454.976 112.253 451.046 123.598 452.381 126.451C453.716 129.305 457.809 135.918 457.809 135.918C457.809 135.918 454.805 129.371 458.065 128.039C461.325 126.706 473.94 121.456 478.344 123.821C479.59 124.447 480.648 125.392 481.411 126.56C482.173 127.728 482.613 129.077 482.684 130.47L483.628 123.763Z" fill="#292940"/>
<path d="M258.302 68.9737L253.009 71.6594C246.913 59.6547 238.836 48.7637 229.118 39.4442C181.395 -6.43486 105.245 -4.93489 59.3654 42.7879C13.4863 90.5107 14.9863 166.661 62.7091 212.54C71.7921 221.29 82.1978 228.553 93.5429 234.061L90.9537 239.402C72.9711 230.67 57.3242 217.785 45.3059 201.811C33.2876 185.836 25.2428 167.232 21.8363 147.533C18.4298 127.835 19.7593 107.61 25.715 88.5269C31.6706 69.4442 42.0815 52.0526 56.0874 37.789C70.0933 23.5253 87.2923 12.7991 106.263 6.49651C125.234 0.193915 145.432 -1.50412 165.189 1.5427C184.946 4.58952 203.694 12.2937 219.885 24.0188C236.076 35.7439 249.244 51.1532 258.302 68.9737Z" fill="#E6E6E6"/>
<path d="M79.2289 179.396C71.4434 187.495 67.1938 198.354 67.4151 209.586C67.6363 220.817 72.3102 231.501 80.4086 239.286C88.5069 247.072 99.3664 251.321 110.598 251.1C121.83 250.879 132.513 246.205 140.299 238.107L147.591 230.522L86.5209 171.811L79.2289 179.396Z" fill="#E6E6E6"/>
<path d="M82.4292 167.503C80.6962 169.31 79.7507 171.73 79.8 174.233C79.8493 176.736 80.8894 179.117 82.6922 180.854L138.705 234.703C140.511 236.439 142.931 237.386 145.435 237.337C147.939 237.288 150.321 236.246 152.057 234.44C153.792 232.635 154.739 230.214 154.69 227.71C154.641 225.206 153.599 222.825 151.794 221.089L95.7805 167.24C93.9738 165.507 91.5534 164.561 89.0504 164.611C86.5475 164.66 84.1662 165.7 82.4292 167.503Z" fill="#3F3D56"/>
<path d="M250.428 123.552L257.72 115.967C265.505 107.869 269.755 97.0091 269.533 85.7775C269.312 74.5459 264.638 63.8622 256.54 56.0767C252.53 52.2217 247.8 49.1943 242.62 47.1672C237.44 45.1402 231.912 44.1533 226.351 44.2629C215.119 44.4841 204.435 49.158 196.65 57.2564L189.358 64.8415L250.428 123.552Z" fill="#E6E6E6"/>
<path d="M184.892 60.9226C183.159 62.7293 182.213 65.1497 182.263 67.6526C182.312 70.1556 183.352 72.5368 185.155 74.2739L241.168 128.123C242.974 129.857 245.394 130.802 247.897 130.752C250.399 130.702 252.78 129.66 254.515 127.855C256.249 126.051 257.197 123.631 257.148 121.129C257.1 118.626 256.06 116.245 254.256 114.509L198.243 60.6596C196.437 58.9266 194.016 57.9811 191.513 58.0304C189.01 58.0797 186.629 59.1198 184.892 60.9226Z" fill="#3F3D56"/>
<path d="M208.521 185.367V180.992C208.521 180.992 227.612 170.253 243.124 180.992V184.969L208.521 185.367Z" fill="#3F3D56"/>
<path d="M382.335 185.367V180.992C382.335 180.992 401.427 170.253 416.939 180.992V184.969L382.335 185.367Z" fill="#3F3D56"/>
<path d="M265.796 184.969H247.102C247.102 184.969 242.329 179.401 226.419 179.798C210.509 180.196 207.327 184.969 207.327 184.969C207.327 184.969 191.616 195.509 188.037 208.635C188.037 208.635 168.746 266.507 168.348 311.85C167.951 357.193 185.451 363.556 194.599 364.75C203.748 365.943 220.055 364.352 235.965 324.18L242.727 300.713C242.727 300.713 243.92 286.792 258.239 295.542C272.557 304.292 285.285 290.769 285.285 290.769H338.981C338.981 290.769 356.879 301.906 373.187 293.156C373.187 293.156 379.551 284.803 385.517 313.043C385.517 313.043 403.813 371.114 432.053 365.147C460.293 359.181 457.111 310.656 457.111 310.656C457.111 310.656 453.332 236.477 437.82 210.226C437.82 210.226 422.905 182.98 412.961 181.787C412.961 181.787 391.483 177.81 383.13 181.389L378.357 185.367L265.796 184.969Z" fill="#E6E6E6"/>
<path d="M222.442 258.552C241.553 258.552 257.045 243.059 257.045 223.948C257.045 204.837 241.553 189.344 222.442 189.344C203.331 189.344 187.838 204.837 187.838 223.948C187.838 243.059 203.331 258.552 222.442 258.552Z" fill="#3F3D56"/>
<path d="M403.018 258.552C422.129 258.552 437.621 243.059 437.621 223.948C437.621 204.837 422.129 189.344 403.018 189.344C383.907 189.344 368.414 204.837 368.414 223.948C368.414 243.059 383.907 258.552 403.018 258.552Z" fill="#3F3D56"/>
<path d="M228.471 216.232L223.858 220.313C223.467 220.657 222.964 220.847 222.444 220.847C221.923 220.847 221.42 220.657 221.03 220.313L216.408 216.232C216.182 216.033 216 215.788 215.876 215.514C215.751 215.24 215.686 214.942 215.684 214.641V203.413C215.685 202.846 215.911 202.302 216.312 201.902C216.713 201.502 217.257 201.277 217.824 201.277H227.071C227.638 201.276 228.182 201.5 228.583 201.899C228.984 202.299 229.21 202.842 229.211 203.409V214.633C229.209 214.937 229.141 215.237 229.014 215.512C228.886 215.788 228.701 216.033 228.471 216.232Z" fill="#E6E6E6"/>
<path d="M228.471 231.66L223.858 227.584C223.467 227.24 222.964 227.05 222.444 227.05C221.923 227.05 221.42 227.24 221.03 227.584L216.408 231.664C216.182 231.863 216 232.108 215.876 232.382C215.751 232.657 215.686 232.954 215.684 233.255V244.472C215.683 245.038 215.907 245.582 216.307 245.983C216.707 246.384 217.249 246.61 217.816 246.611H227.071C227.638 246.612 228.182 246.388 228.583 245.989C228.984 245.589 229.21 245.046 229.211 244.48V233.259C229.209 232.956 229.141 232.656 229.014 232.38C228.886 232.104 228.701 231.859 228.471 231.66Z" fill="#E6E6E6"/>
<path d="M214.729 229.986L218.81 225.364C219.154 224.973 219.344 224.471 219.344 223.95C219.344 223.43 219.154 222.927 218.81 222.536L214.729 217.914C214.53 217.688 214.285 217.507 214.011 217.383C213.737 217.258 213.44 217.192 213.138 217.19H201.922C201.355 217.191 200.812 217.417 200.411 217.819C200.011 218.22 199.786 218.763 199.786 219.33V228.578C199.785 229.144 200.009 229.688 200.409 230.089C200.809 230.491 201.352 230.717 201.918 230.718H213.142C213.444 230.715 213.741 230.648 214.014 230.522C214.288 230.395 214.531 230.213 214.729 229.986Z" fill="#E6E6E6"/>
<path d="M230.158 229.986L226.085 225.36C225.74 224.97 225.55 224.467 225.55 223.946C225.55 223.425 225.74 222.923 226.085 222.532L230.166 217.91C230.365 217.684 230.61 217.503 230.884 217.378C231.158 217.254 231.456 217.188 231.757 217.187H242.973C243.54 217.185 244.083 217.409 244.485 217.809C244.886 218.209 245.112 218.752 245.113 219.318V228.574C245.114 229.14 244.89 229.684 244.49 230.085C244.091 230.487 243.548 230.713 242.981 230.714H231.761C231.457 230.713 231.157 230.648 230.881 230.523C230.604 230.397 230.358 230.214 230.158 229.986Z" fill="#E6E6E6"/>
<path d="M269.376 286.792C283.215 286.792 294.433 275.573 294.433 261.734C294.433 247.895 283.215 236.676 269.376 236.676C255.536 236.676 244.318 247.895 244.318 261.734C244.318 275.573 255.536 286.792 269.376 286.792Z" fill="#3F3D56"/>
<path d="M356.084 286.792C369.923 286.792 381.142 275.573 381.142 261.734C381.142 247.895 369.923 236.676 356.084 236.676C342.245 236.676 331.026 247.895 331.026 261.734C331.026 275.573 342.245 286.792 356.084 286.792Z" fill="#3F3D56"/>
<path d="M269.376 278.439C278.602 278.439 286.081 270.96 286.081 261.734C286.081 252.508 278.602 245.029 269.376 245.029C260.149 245.029 252.67 252.508 252.67 261.734C252.67 270.96 260.149 278.439 269.376 278.439Z" fill="#E6E6E6"/>
<path d="M269.375 273.268C267.094 273.268 264.864 272.592 262.967 271.325C261.07 270.057 259.592 268.256 258.719 266.148C257.846 264.04 257.617 261.721 258.062 259.484C258.508 257.246 259.606 255.191 261.219 253.578C262.832 251.964 264.888 250.866 267.125 250.421C269.363 249.976 271.682 250.204 273.79 251.077C275.897 251.95 277.699 253.429 278.966 255.326C280.234 257.222 280.91 259.453 280.91 261.734C280.907 264.792 279.69 267.724 277.528 269.886C275.365 272.049 272.434 273.265 269.375 273.268ZM269.375 250.995C267.251 250.995 265.175 251.625 263.409 252.805C261.643 253.985 260.267 255.662 259.454 257.624C258.641 259.586 258.428 261.746 258.843 263.829C259.257 265.912 260.28 267.826 261.782 269.328C263.284 270.829 265.197 271.852 267.28 272.267C269.364 272.681 271.523 272.468 273.485 271.655C275.447 270.843 277.125 269.466 278.305 267.7C279.485 265.934 280.115 263.858 280.115 261.734C280.111 258.887 278.979 256.157 276.966 254.144C274.952 252.13 272.223 250.998 269.375 250.995Z" fill="#3F3D56"/>
<path d="M356.084 278.439C365.31 278.439 372.789 270.96 372.789 261.734C372.789 252.508 365.31 245.029 356.084 245.029C346.858 245.029 339.379 252.508 339.379 261.734C339.379 270.96 346.858 278.439 356.084 278.439Z" fill="#E6E6E6"/>
<path d="M356.084 273.268C353.803 273.268 351.572 272.592 349.676 271.325C347.779 270.057 346.3 268.256 345.427 266.148C344.554 264.04 344.326 261.721 344.771 259.484C345.216 257.246 346.315 255.191 347.928 253.578C349.541 251.964 351.596 250.866 353.834 250.421C356.071 249.976 358.39 250.204 360.498 251.077C362.606 251.95 364.407 253.429 365.675 255.326C366.942 257.222 367.618 259.453 367.618 261.734C367.615 264.792 366.399 267.724 364.236 269.886C362.074 272.049 359.142 273.265 356.084 273.268ZM356.084 250.995C353.96 250.995 351.884 251.625 350.118 252.805C348.352 253.985 346.975 255.662 346.162 257.624C345.349 259.586 345.137 261.746 345.551 263.829C345.966 265.912 346.988 267.826 348.49 269.328C349.992 270.829 351.906 271.852 353.989 272.267C356.072 272.681 358.231 272.468 360.194 271.655C362.156 270.843 363.833 269.466 365.013 267.7C366.193 265.934 366.823 263.858 366.823 261.734C366.82 258.887 365.687 256.157 363.674 254.144C361.661 252.13 358.931 250.998 356.084 250.995Z" fill="#3F3D56"/>
<path d="M313.525 271.677C317.479 271.677 320.685 268.472 320.685 264.518C320.685 260.564 317.479 257.359 313.525 257.359C309.571 257.359 306.366 260.564 306.366 264.518C306.366 268.472 309.571 271.677 313.525 271.677Z" fill="#3F3D56"/>
<path d="M302.583 242.185C303.447 242.185 304.146 241.485 304.146 240.621C304.146 239.758 303.447 239.058 302.583 239.058C301.72 239.058 301.02 239.758 301.02 240.621C301.02 241.485 301.72 242.185 302.583 242.185Z" fill="#3F3D56"/>
<path d="M308.438 242.185C309.301 242.185 310.001 241.485 310.001 240.621C310.001 239.758 309.301 239.058 308.438 239.058C307.575 239.058 306.875 239.758 306.875 240.621C306.875 241.485 307.575 242.185 308.438 242.185Z" fill="#3F3D56"/>
<path d="M307.658 249.603C308.522 249.603 309.222 248.903 309.222 248.039C309.222 247.176 308.522 246.476 307.658 246.476C306.795 246.476 306.095 247.176 306.095 248.039C306.095 248.903 306.795 249.603 307.658 249.603Z" fill="#3F3D56"/>
<path d="M313.127 249.801C314.006 249.801 314.718 249.089 314.718 248.21C314.718 247.332 314.006 246.619 313.127 246.619C312.249 246.619 311.536 247.332 311.536 248.21C311.536 249.089 312.249 249.801 313.127 249.801Z" fill="#3F3D56"/>
<path d="M318.588 249.603C319.452 249.603 320.152 248.903 320.152 248.039C320.152 247.176 319.452 246.476 318.588 246.476C317.725 246.476 317.025 247.176 317.025 248.039C317.025 248.903 317.725 249.603 318.588 249.603Z" fill="#3F3D56"/>
<path d="M305.316 246.09C306.179 246.09 306.879 245.391 306.879 244.527C306.879 243.664 306.179 242.964 305.316 242.964C304.452 242.964 303.753 243.664 303.753 244.527C303.753 245.391 304.452 246.09 305.316 246.09Z" fill="#3F3D56"/>
<path d="M310.343 246.222C311.222 246.222 311.934 245.509 311.934 244.631C311.934 243.752 311.222 243.04 310.343 243.04C309.464 243.04 308.752 243.752 308.752 244.631C308.752 245.509 309.464 246.222 310.343 246.222Z" fill="#3F3D56"/>
<path d="M315.514 246.222C316.393 246.222 317.105 245.509 317.105 244.631C317.105 243.752 316.393 243.04 315.514 243.04C314.635 243.04 313.923 243.752 313.923 244.631C313.923 245.509 314.635 246.222 315.514 246.222Z" fill="#3F3D56"/>
<path d="M320.931 246.09C321.794 246.09 322.494 245.391 322.494 244.527C322.494 243.664 321.794 242.964 320.931 242.964C320.068 242.964 319.368 243.664 319.368 244.527C319.368 245.391 320.068 246.09 320.931 246.09Z" fill="#3F3D56"/>
<path d="M313.127 242.244C314.006 242.244 314.718 241.532 314.718 240.653C314.718 239.775 314.006 239.062 313.127 239.062C312.249 239.062 311.536 239.775 311.536 240.653C311.536 241.532 312.249 242.244 313.127 242.244Z" fill="#3F3D56"/>
<path d="M318.696 242.244C319.575 242.244 320.287 241.532 320.287 240.653C320.287 239.775 319.575 239.062 318.696 239.062C317.817 239.062 317.105 239.775 317.105 240.653C317.105 241.532 317.817 242.244 318.696 242.244Z" fill="#3F3D56"/>
<path d="M323.274 242.185C324.137 242.185 324.837 241.485 324.837 240.621C324.837 239.758 324.137 239.058 323.274 239.058C322.411 239.058 321.711 239.758 321.711 240.621C321.711 241.485 322.411 242.185 323.274 242.185Z" fill="#3F3D56"/>
<path d="M254.062 188.359C253.327 188.36 252.621 188.652 252.101 189.173C251.581 189.693 251.288 190.398 251.287 191.134V199.487C251.288 200.223 251.581 200.928 252.101 201.448C252.621 201.968 253.327 202.261 254.062 202.262H256.051C256.787 202.261 257.492 201.968 258.012 201.448C258.533 200.928 258.825 200.223 258.826 199.487V191.134C258.825 190.398 258.533 189.693 258.012 189.173C257.492 188.652 256.787 188.36 256.051 188.359H254.062Z" fill="#3F3D56"/>
<path d="M370.204 188.359C369.468 188.36 368.762 188.652 368.242 189.173C367.722 189.693 367.429 190.398 367.429 191.134V199.487C367.429 200.223 367.722 200.928 368.242 201.448C368.762 201.968 369.468 202.261 370.204 202.262H372.192C372.928 202.261 373.634 201.968 374.154 201.448C374.674 200.928 374.967 200.223 374.967 199.487V191.134C374.967 190.398 374.674 189.693 374.154 189.173C373.634 188.652 372.928 188.36 372.192 188.359H370.204Z" fill="#3F3D56"/>
<path d="M403.415 212.413C408.687 212.413 412.961 208.14 412.961 202.867C412.961 197.595 408.687 193.322 403.415 193.322C398.143 193.322 393.87 197.595 393.87 202.867C393.87 208.14 398.143 212.413 403.415 212.413Z" fill="#E6E6E6"/>
<path d="M383.13 232.698C388.402 232.698 392.676 228.425 392.676 223.153C392.676 217.881 388.402 213.607 383.13 213.607C377.858 213.607 373.585 217.881 373.585 223.153C373.585 228.425 377.858 232.698 383.13 232.698Z" fill="#E6E6E6"/>
<path d="M424.496 231.505C429.768 231.505 434.042 227.231 434.042 221.959C434.042 216.687 429.768 212.414 424.496 212.414C419.224 212.414 414.95 216.687 414.95 221.959C414.95 227.231 419.224 231.505 424.496 231.505Z" fill="#E6E6E6"/>
<path d="M405.006 252.586C410.278 252.586 414.552 248.312 414.552 243.04C414.552 237.768 410.278 233.494 405.006 233.494C399.734 233.494 395.461 237.768 395.461 243.04C395.461 248.312 399.734 252.586 405.006 252.586Z" fill="#E6E6E6"/>
<path d="M272.06 182.791C269.927 182.793 267.882 183.641 266.374 185.15C264.866 186.658 264.017 188.703 264.015 190.836V226.434C264.017 228.567 264.866 230.612 266.374 232.12C267.882 233.628 269.927 234.477 272.06 234.479H353.796C355.929 234.477 357.974 233.628 359.483 232.12C360.991 230.612 361.839 228.567 361.842 226.434V190.836C361.839 188.703 360.991 186.658 359.483 185.15C357.974 183.641 355.929 182.793 353.796 182.791H272.06Z" fill="#3F3D56"/>
<path d="M409.901 207.243H396.956L403.205 196.53L409.901 207.243ZM398.341 206.447H408.465L403.228 198.068L398.341 206.447Z" fill="#3F3D56"/>
<path d="M388.5 227.925H377.761V218.379H388.5V227.925ZM378.556 227.13H387.705V219.175H378.556V227.13Z" fill="#3F3D56"/>
<path d="M424.496 227.926C423.316 227.926 422.162 227.576 421.181 226.92C420.2 226.264 419.436 225.333 418.984 224.243C418.532 223.152 418.414 221.953 418.644 220.795C418.875 219.638 419.443 218.575 420.277 217.741C421.112 216.906 422.175 216.338 423.332 216.108C424.489 215.878 425.689 215.996 426.779 216.447C427.869 216.899 428.801 217.664 429.457 218.645C430.112 219.626 430.462 220.779 430.462 221.959C430.46 223.541 429.831 225.058 428.713 226.176C427.594 227.295 426.078 227.924 424.496 227.926ZM424.496 216.789C423.473 216.789 422.474 217.092 421.623 217.66C420.773 218.228 420.11 219.036 419.719 219.981C419.327 220.925 419.225 221.965 419.425 222.968C419.624 223.971 420.117 224.892 420.84 225.616C421.563 226.339 422.484 226.831 423.487 227.031C424.49 227.23 425.53 227.128 426.475 226.736C427.42 226.345 428.227 225.682 428.795 224.832C429.363 223.982 429.667 222.982 429.667 221.959C429.665 220.588 429.12 219.274 428.15 218.305C427.181 217.335 425.867 216.79 424.496 216.789Z" fill="#3F3D56"/>
<path d="M400.714 238.284L400.151 238.846L409.1 247.795L409.663 247.233L400.714 238.284Z" fill="#3F3D56"/>
<path d="M409.305 238.277L400.158 247.029L400.708 247.603L409.855 238.852L409.305 238.277Z" fill="#3F3D56"/>
<path d="M84.547 91.9025C62.8301 97.8897 39.0493 102.397 30.5282 95.4046C35.1935 87.6378 37.8844 79.9825 38.1127 72.4664C38.1641 69.0274 39.557 65.7445 41.9943 63.3178C43.6078 61.7589 45.5555 60.5884 47.6892 59.895C49.8229 59.2017 52.0866 59.0038 54.3083 59.3163L59.9444 60.1072C60.1341 60.1339 60.3228 60.1641 60.5106 60.1979C63.2158 60.7104 65.6926 62.0572 67.5933 64.0492C69.494 66.0413 70.7232 68.5785 71.1082 71.3048C72.2957 79.4549 76.2887 86.5106 84.547 91.9025Z" fill="#292940"/>
<path d="M105.495 169.224L113.938 170.965C114.583 171.098 115.19 171.373 115.715 171.77C116.241 172.167 116.671 172.676 116.975 173.26C117.28 173.844 117.45 174.488 117.474 175.146C117.498 175.804 117.375 176.459 117.115 177.064C116.863 177.648 116.488 178.171 116.016 178.598C115.544 179.025 114.986 179.345 114.379 179.536C113.773 179.728 113.132 179.787 112.5 179.709C111.869 179.632 111.261 179.419 110.719 179.085L97.8051 171.143L75.8697 119.576L87.2311 116.29L105.495 169.224Z" fill="#A0616A"/>
<path d="M45.3527 236.889L38.9601 238.748L34.1213 228.755L39.0419 226.191L45.3527 236.889Z" fill="#A0616A"/>
<path d="M42.1046 279.706L34.2612 277.63L35.4891 264.154L42.2391 264.57L42.1046 279.706Z" fill="#A0616A"/>
<path d="M42.9226 227.547L34.6153 233.014L2.66484 196.874C1.9718 196.09 1.46003 195.163 1.16593 194.159C0.871834 193.155 0.802645 192.098 0.963274 191.064C1.1239 190.031 1.51041 189.045 2.09529 188.177C2.68018 187.309 3.44908 186.581 4.34728 186.045L44.1497 162.262L50.2459 179.774L29.5207 199.223L42.9226 227.547Z" fill="#292940"/>
<path d="M49.9185 246.465C49.8977 246.492 49.8768 246.519 49.8559 246.546C49.325 249.655 48.3925 252.49 46.3101 254.543C45.6927 255.936 44.5841 257.052 43.196 257.679C41.8079 258.306 40.2375 258.399 38.7847 257.942C37.4146 257.51 36.2369 256.616 35.4531 255.413C34.6693 254.209 34.328 252.77 34.4877 251.343L36.04 237.468C39.7637 236.612 42.6037 234.494 44.0412 230.374L47.6602 232.839C48.7311 233.563 49.6434 234.497 50.3413 235.585C51.0392 236.673 51.5082 237.891 51.7195 239.166C51.9308 240.441 51.8801 241.746 51.5705 243.001C51.2609 244.256 50.6988 245.435 49.9185 246.465Z" fill="#292940"/>
<path d="M53.8567 88.9312C60.9183 88.9312 66.6428 83.2066 66.6428 76.145C66.6428 69.0834 60.9183 63.3589 53.8567 63.3589C46.7951 63.3589 41.0706 69.0834 41.0706 76.145C41.0706 83.2066 46.7951 88.9312 53.8567 88.9312Z" fill="#A0616A"/>
<path d="M64.9295 96.585L44.7722 113.279L43.2023 106.407L46.7207 101.044C47.6971 95.7823 47.0667 89.9798 45.3889 83.825L58.5401 83.837C59.1078 88.8108 61.0442 93.1499 64.9295 96.585Z" fill="#A0616A"/>
<path d="M70.6046 140.375L43.3922 148.665L41.2751 138.986C36.1754 132.139 33.9585 125.889 37.2949 120.79L35.6159 113.114C40.4322 109.322 44.2196 105.443 46.2992 101.417L63.042 94.8748L75.3503 95.632L78.9848 107.812L70.6046 140.375Z" fill="#4B4DED"/>
<path d="M89.9371 117.652C84.1365 117.591 78.4596 119.33 73.6891 122.631L75.3503 95.6318C77.0364 95.857 78.6349 96.5173 79.9885 97.5477C81.342 98.5782 82.404 99.9432 83.0699 101.509L89.9371 117.652Z" fill="#4B4DED"/>
<path d="M42.8374 267.795L34.2003 265.669L35.4716 192.28L47.0696 179.579L44.4734 163.477L42.7935 145.439L71.1237 138.415C80.6994 155.802 86.4872 171.61 78.0387 181.484L42.8374 267.795Z" fill="#292940"/>
<path d="M40.8536 292.574C40.8149 292.589 40.7761 292.604 40.7373 292.619C38.2293 295.531 35.4737 297.906 32.0093 298.741C30.4896 299.807 28.6306 300.275 26.7873 300.058C24.9439 299.84 23.2454 298.951 22.0159 297.56C20.8565 296.249 20.1887 294.575 20.1268 292.826C20.0649 291.076 20.6128 289.36 21.6767 287.969L32.0173 274.458C36.4432 275.904 40.7393 275.478 44.8294 272.08L47.0589 276.928C47.7224 278.356 48.0878 279.905 48.1328 281.479C48.1779 283.054 47.9016 284.621 47.3209 286.085C46.7403 287.549 45.8673 288.88 44.7554 289.996C43.6435 291.111 42.3159 291.988 40.8536 292.574Z" fill="#292940"/>
<path d="M9.30201 178.052L1.72087 184.543C1.09176 185.082 0.608807 185.77 0.316791 186.545C0.024776 187.32 -0.0668572 188.157 0.0503845 188.976C0.167626 189.796 0.489951 190.573 0.987476 191.235C1.485 191.897 2.14163 192.423 2.89649 192.764C4.03286 193.277 5.32159 193.339 6.50216 192.938C7.68273 192.537 8.66706 191.703 9.25618 190.605L14.7384 180.379L39.8797 134.5L30.4241 132.722L9.30201 178.052Z" fill="#A0616A"/>
<path d="M41.3946 135.788C36.484 134.306 31.8842 133.433 28.3167 134.585C29.0645 125.331 30.6058 117.065 35.6159 113.114L42.7382 113.951L41.3946 135.788Z" fill="#4B4DED"/>
<path d="M68.1304 73.1802L40.7833 71.4976L41.1199 66.0282C50.6661 59.5912 59.7818 60.1521 68.467 67.7108L68.1304 73.1802Z" fill="#292940"/>
</svg>
