<svg width="134" height="29" viewBox="0 0 134 29" fill="none" xmlns="http://www.w3.org/2000/svg">
<path d="M50.817 6.648V24H47.973V12.792C47.973 12.344 47.997 11.86 48.045 11.34L42.801 21.192C42.553 21.664 42.173 21.9 41.661 21.9H41.205C40.693 21.9 40.313 21.664 40.065 21.192L34.761 11.304C34.785 11.568 34.805 11.828 34.821 12.084C34.837 12.34 34.845 12.576 34.845 12.792V24H32.001V6.648H34.437C34.581 6.648 34.705 6.652 34.809 6.66C34.913 6.668 35.005 6.688 35.085 6.72C35.173 6.752 35.249 6.804 35.313 6.876C35.385 6.948 35.453 7.044 35.517 7.164L40.713 16.8C40.849 17.056 40.973 17.32 41.085 17.592C41.205 17.864 41.321 18.144 41.433 18.432C41.545 18.136 41.661 17.852 41.781 17.58C41.901 17.3 42.029 17.032 42.165 16.776L47.289 7.164C47.353 7.044 47.421 6.948 47.493 6.876C47.565 6.804 47.641 6.752 47.721 6.72C47.809 6.688 47.905 6.668 48.009 6.66C48.113 6.652 48.237 6.648 48.381 6.648H50.817ZM60.1798 18.744C59.3238 18.784 58.6038 18.86 58.0198 18.972C57.4358 19.076 56.9678 19.212 56.6158 19.38C56.2638 19.548 56.0118 19.744 55.8598 19.968C55.7078 20.192 55.6318 20.436 55.6318 20.7C55.6318 21.22 55.7838 21.592 56.0878 21.816C56.3998 22.04 56.8038 22.152 57.2998 22.152C57.9078 22.152 58.4318 22.044 58.8718 21.828C59.3198 21.604 59.7558 21.268 60.1798 20.82V18.744ZM53.3878 13.404C54.8038 12.108 56.5078 11.46 58.4998 11.46C59.2198 11.46 59.8638 11.58 60.4318 11.82C60.9998 12.052 61.4798 12.38 61.8718 12.804C62.2638 13.22 62.5598 13.72 62.7598 14.304C62.9678 14.888 63.0718 15.528 63.0718 16.224V24H61.7278C61.4478 24 61.2318 23.96 61.0798 23.88C60.9278 23.792 60.8078 23.62 60.7198 23.364L60.4558 22.476C60.1438 22.756 59.8398 23.004 59.5438 23.22C59.2478 23.428 58.9398 23.604 58.6198 23.748C58.2998 23.892 57.9558 24 57.5878 24.072C57.2278 24.152 56.8278 24.192 56.3878 24.192C55.8678 24.192 55.3878 24.124 54.9478 23.988C54.5078 23.844 54.1278 23.632 53.8078 23.352C53.4878 23.072 53.2398 22.724 53.0638 22.308C52.8878 21.892 52.7998 21.408 52.7998 20.856C52.7998 20.544 52.8518 20.236 52.9558 19.932C53.0598 19.62 53.2278 19.324 53.4598 19.044C53.6998 18.764 54.0078 18.5 54.3838 18.252C54.7598 18.004 55.2198 17.788 55.7638 17.604C56.3158 17.42 56.9558 17.272 57.6838 17.16C58.4118 17.04 59.2438 16.968 60.1798 16.944V16.224C60.1798 15.4 60.0038 14.792 59.6518 14.4C59.2998 14 58.7918 13.8 58.1278 13.8C57.6478 13.8 57.2478 13.856 56.9278 13.968C56.6158 14.08 56.3398 14.208 56.0998 14.352C55.8598 14.488 55.6398 14.612 55.4398 14.724C55.2478 14.836 55.0318 14.892 54.7918 14.892C54.5838 14.892 54.4078 14.84 54.2638 14.736C54.1198 14.624 54.0038 14.496 53.9158 14.352L53.3878 13.404ZM69.5632 24.192C68.4912 24.192 67.6672 23.892 67.0912 23.292C66.5232 22.684 66.2392 21.848 66.2392 20.784V13.908H64.9792C64.8192 13.908 64.6832 13.856 64.5712 13.752C64.4592 13.648 64.4032 13.492 64.4032 13.284V12.108L66.3832 11.784L67.0072 8.424C67.0472 8.264 67.1232 8.14 67.2352 8.052C67.3472 7.964 67.4912 7.92 67.6672 7.92H69.2032V11.796H72.4912V13.908H69.2032V20.58C69.2032 20.964 69.2952 21.264 69.4792 21.48C69.6712 21.696 69.9312 21.804 70.2592 21.804C70.4432 21.804 70.5952 21.784 70.7152 21.744C70.8432 21.696 70.9512 21.648 71.0392 21.6C71.1352 21.552 71.2192 21.508 71.2912 21.468C71.3632 21.42 71.4352 21.396 71.5072 21.396C71.5952 21.396 71.6672 21.42 71.7232 21.468C71.7792 21.508 71.8392 21.572 71.9032 21.66L72.7912 23.1C72.3592 23.46 71.8632 23.732 71.3032 23.916C70.7432 24.1 70.1632 24.192 69.5632 24.192ZM77.1129 13.008C77.5929 12.56 78.1209 12.196 78.6969 11.916C79.2729 11.636 79.9489 11.496 80.7249 11.496C81.3969 11.496 81.9929 11.612 82.5129 11.844C83.0329 12.068 83.4649 12.388 83.8089 12.804C84.1609 13.212 84.4249 13.704 84.6009 14.28C84.7849 14.848 84.8769 15.476 84.8769 16.164V24H81.9129V16.164C81.9129 15.412 81.7409 14.832 81.3969 14.424C81.0529 14.008 80.5289 13.8 79.8249 13.8C79.3129 13.8 78.8329 13.916 78.3849 14.148C77.9369 14.38 77.5129 14.696 77.1129 15.096V24H74.1489V6.168H77.1129V13.008Z" fill="#09093D"/>
<path d="M95.1838 14.832C94.8478 14.424 94.4798 14.136 94.0798 13.968C93.6878 13.8 93.2638 13.716 92.8078 13.716C92.3598 13.716 91.9558 13.8 91.5958 13.968C91.2358 14.136 90.9278 14.392 90.6718 14.736C90.4158 15.072 90.2198 15.504 90.0838 16.032C89.9478 16.552 89.8798 17.168 89.8798 17.88C89.8798 18.6 89.9358 19.212 90.0478 19.716C90.1678 20.212 90.3358 20.62 90.5518 20.94C90.7678 21.252 91.0318 21.48 91.3438 21.624C91.6558 21.76 92.0038 21.828 92.3878 21.828C93.0038 21.828 93.5278 21.7 93.9598 21.444C94.3918 21.188 94.7998 20.824 95.1838 20.352V14.832ZM98.1478 6.168V24H96.3358C95.9438 24 95.6958 23.82 95.5918 23.46L95.3398 22.272C94.8438 22.84 94.2718 23.3 93.6238 23.652C92.9838 24.004 92.2358 24.18 91.3798 24.18C90.7078 24.18 90.0918 24.04 89.5318 23.76C88.9718 23.48 88.4878 23.076 88.0798 22.548C87.6798 22.012 87.3678 21.352 87.1438 20.568C86.9278 19.784 86.8198 18.888 86.8198 17.88C86.8198 16.968 86.9438 16.12 87.1918 15.336C87.4398 14.552 87.7958 13.872 88.2598 13.296C88.7238 12.72 89.2798 12.272 89.9278 11.952C90.5758 11.624 91.3038 11.46 92.1118 11.46C92.7998 11.46 93.3878 11.568 93.8758 11.784C94.3638 12 94.7998 12.292 95.1838 12.66V6.168H98.1478ZM106.281 11.496C107.193 11.496 108.021 11.644 108.765 11.94C109.517 12.236 110.157 12.656 110.685 13.2C111.221 13.744 111.633 14.408 111.921 15.192C112.209 15.976 112.353 16.852 112.353 17.82C112.353 18.796 112.209 19.676 111.921 20.46C111.633 21.244 111.221 21.912 110.685 22.464C110.157 23.016 109.517 23.44 108.765 23.736C108.021 24.032 107.193 24.18 106.281 24.18C105.361 24.18 104.525 24.032 103.773 23.736C103.021 23.44 102.377 23.016 101.841 22.464C101.313 21.912 100.901 21.244 100.605 20.46C100.317 19.676 100.173 18.796 100.173 17.82C100.173 16.852 100.317 15.976 100.605 15.192C100.901 14.408 101.313 13.744 101.841 13.2C102.377 12.656 103.021 12.236 103.773 11.94C104.525 11.644 105.361 11.496 106.281 11.496ZM106.281 21.9C107.305 21.9 108.061 21.556 108.549 20.868C109.045 20.18 109.293 19.172 109.293 17.844C109.293 16.516 109.045 15.504 108.549 14.808C108.061 14.112 107.305 13.764 106.281 13.764C105.241 13.764 104.469 14.116 103.965 14.82C103.469 15.516 103.221 16.524 103.221 17.844C103.221 19.164 103.469 20.172 103.965 20.868C104.469 21.556 105.241 21.9 106.281 21.9ZM114.374 24V11.688H116.186C116.57 11.688 116.822 11.868 116.942 12.228L117.134 13.14C117.35 12.9 117.574 12.68 117.806 12.48C118.046 12.28 118.298 12.108 118.562 11.964C118.834 11.82 119.122 11.708 119.426 11.628C119.738 11.54 120.078 11.496 120.446 11.496C121.222 11.496 121.858 11.708 122.354 12.132C122.858 12.548 123.234 13.104 123.482 13.8C123.674 13.392 123.914 13.044 124.202 12.756C124.49 12.46 124.806 12.22 125.15 12.036C125.494 11.852 125.858 11.716 126.242 11.628C126.634 11.54 127.026 11.496 127.418 11.496C128.098 11.496 128.702 11.6 129.23 11.808C129.758 12.016 130.202 12.32 130.562 12.72C130.922 13.12 131.194 13.608 131.378 14.184C131.57 14.76 131.666 15.42 131.666 16.164V24H128.702V16.164C128.702 15.38 128.53 14.792 128.186 14.4C127.842 14 127.338 13.8 126.674 13.8C126.37 13.8 126.086 13.852 125.822 13.956C125.566 14.06 125.338 14.212 125.138 14.412C124.946 14.604 124.794 14.848 124.682 15.144C124.57 15.44 124.514 15.78 124.514 16.164V24H121.538V16.164C121.538 15.34 121.37 14.74 121.034 14.364C120.706 13.988 120.222 13.8 119.582 13.8C119.15 13.8 118.746 13.908 118.37 14.124C118.002 14.332 117.658 14.62 117.338 14.988V24H114.374Z" fill="#F53A3A"/>
<path d="M0 3V8.60919V10.3563L3.77011 14.1264V12.2874L11.1264 19.6437L18.4828 12.2874V14.1264L22.069 10.5402V8.60919V3.18391L11.1264 14.1264L0 3Z" fill="#09093D"/>
<path d="M11.1264 21.4828L0 10.3563V15.8736L11.1264 27L22.069 16.0575V10.5402L11.1264 21.4828Z" fill="#F53A3A"/>
<path d="M0 25.1609V17.8046L3.67816 21.4828V25.1609H0Z" fill="#09093D"/>
<path d="M22.069 25.1609V17.8046L18.3908 21.4828V25.1609H22.069Z" fill="#09093D"/>
</svg>
