<svg width="527" height="371" viewBox="0 0 527 371" fill="none" xmlns="http://www.w3.org/2000/svg">
<path d="M268.868 370.214C284.702 370.214 297.538 357.378 297.538 341.544C297.538 325.71 284.702 312.874 268.868 312.874C253.034 312.874 240.198 325.71 240.198 341.544C240.198 357.378 253.034 370.214 268.868 370.214Z" fill="#F53A3A"/>
<path d="M440.143 368.603C456.182 363.786 473.234 358.763 485.954 347.312C497.321 337.079 504.994 321.454 500.285 306.108C495.586 290.793 481.51 280.582 466.978 275.503C458.735 272.622 450.112 271.024 441.492 269.768C432.121 268.404 422.709 267.286 413.302 266.21C375.21 261.853 336.974 259.191 298.595 258.225C279.658 257.748 260.724 257.76 241.784 258.035C224.869 258.28 207.055 258.274 191.364 251.085C179.161 245.494 168.086 235.323 164.686 221.958C160.761 206.529 168.001 190.818 178.385 179.644C183.859 173.754 190.257 168.797 196.856 164.239C204.016 159.294 211.425 154.699 218.995 150.41C233.904 141.966 249.491 134.781 265.593 128.927C273.537 126.039 281.599 123.547 289.731 121.248C296.597 119.306 303.485 117.362 310.121 114.717C322.95 109.604 335.152 100.944 338.413 86.7449C341.505 73.2879 336.292 58.6793 327.154 48.6823C316.582 37.1166 300.641 32.0465 285.359 31.2262C268.202 30.3052 251.44 34.5993 235.313 40.0489C218.114 45.8614 201.285 52.5447 183.721 57.2528C166.305 61.9168 148.552 65.2169 130.623 67.123C121.846 68.0576 112.804 69.1129 103.975 68.3974C96.575 67.7977 89.2133 65.6216 83.7599 60.3701C79.0839 55.8672 76.2984 49.6787 77.256 43.148C77.43 41.9619 79.2319 42.4662 79.059 43.6451C77.8933 51.5948 83.2971 58.9202 89.9561 62.6727C97.6522 67.0095 107.017 67.0154 115.585 66.5194C134.164 65.3973 152.617 62.7298 170.753 58.5445C188.573 54.4742 205.757 48.6557 222.922 42.4401C239.223 36.5369 255.89 30.7754 273.306 29.4968C288.417 28.3873 304.314 30.5889 317.478 38.4861C329.048 45.4266 337.556 57.0013 340.267 70.2834C342.916 83.2625 339.248 96.3261 329.423 105.383C319.25 114.761 305.302 118.77 292.304 122.463C275.817 127.146 259.684 132.621 244.068 139.729C228.24 146.914 213.06 155.448 198.695 165.238C184.83 174.713 171.147 186.634 166.762 203.537C164.719 211.411 165.096 219.762 168.514 227.199C171.553 233.812 176.558 239.374 182.389 243.665C196.301 253.901 213.834 256.003 230.638 256.212C249.511 256.447 268.385 255.81 287.264 256.12C325.739 256.751 364.135 259.093 402.453 263.146C412.054 264.162 421.644 265.285 431.221 266.516C439.835 267.622 448.479 268.722 456.948 270.688C472.007 274.183 486.661 280.904 496.021 293.672C500.175 299.207 502.749 305.765 503.467 312.648C504.122 319.83 502.364 327.026 499.117 333.415C491.929 347.557 478.466 356.552 464.169 362.462C456.511 365.627 448.568 368.025 440.64 370.406C439.485 370.753 438.991 368.949 440.143 368.603L440.143 368.603Z" fill="#F2F2F2"/>
<path d="M78.4634 58.2744C86.7245 58.2744 93.4215 51.5774 93.4215 43.3163C93.4215 35.0551 86.7245 28.3582 78.4634 28.3582C70.2022 28.3582 63.5052 35.0551 63.5052 43.3163C63.5052 51.5774 70.2022 58.2744 78.4634 58.2744Z" fill="#4B4DED" fill-opacity="0.1"/>
<path d="M182.235 86.6326C190.497 86.6326 197.193 79.9356 197.193 71.6744C197.193 63.4133 190.497 56.7163 182.235 56.7163C173.974 56.7163 167.277 63.4133 167.277 71.6744C167.277 79.9356 173.974 86.6326 182.235 86.6326Z" fill="#37BC54" fill-opacity="0.25"/>
<path d="M270.114 29.9163C278.375 29.9163 285.072 23.2193 285.072 14.9581C285.072 6.69698 278.375 0 270.114 0C261.853 0 255.156 6.69698 255.156 14.9581C255.156 23.2193 261.853 29.9163 270.114 29.9163Z" fill="#FAD34B" fill-opacity="0.25"/>
<path d="M324.961 93.4883C333.222 93.4883 339.919 86.7913 339.919 78.5302C339.919 70.269 333.222 63.572 324.961 63.572C316.7 63.572 310.003 70.269 310.003 78.5302C310.003 86.7913 316.7 93.4883 324.961 93.4883Z" fill="#F2F2F2"/>
<path d="M250.793 167.033C259.055 167.033 265.752 160.336 265.752 152.074C265.752 143.813 259.055 137.116 250.793 137.116C242.532 137.116 235.835 143.813 235.835 152.074C235.835 160.336 242.532 167.033 250.793 167.033Z" fill="#F53A3A" fill-opacity="0.25"/>
<path d="M156.682 202.558C164.943 202.558 171.64 195.861 171.64 187.6C171.64 179.339 164.943 172.642 156.682 172.642C148.421 172.642 141.724 179.339 141.724 187.6C141.724 195.861 148.421 202.558 156.682 202.558Z" fill="#FAD34B" fill-opacity="0.25"/>
<path d="M256.403 258.028C264.664 258.028 271.361 251.331 271.361 243.07C271.361 234.809 264.664 228.112 256.403 228.112C248.142 228.112 241.445 234.809 241.445 243.07C241.445 251.331 248.142 258.028 256.403 258.028Z" fill="#F2F2F2"/>
<path d="M363.603 289.19C371.864 289.19 378.561 282.493 378.561 274.232C378.561 265.971 371.864 259.274 363.603 259.274C355.342 259.274 348.645 265.971 348.645 274.232C348.645 282.493 355.342 289.19 363.603 289.19Z" fill="#F2F2F2"/>
<path d="M488.877 282.335C497.138 282.335 503.835 275.638 503.835 267.377C503.835 259.115 497.138 252.418 488.877 252.418C480.616 252.418 473.919 259.115 473.919 267.377C473.919 275.638 480.616 282.335 488.877 282.335Z" fill="#09093D" fill-opacity="0.25"/>
<path d="M265.797 42.3835C220.99 42.7 184.302 79.1119 183.666 123.915C183.66 124.329 183.657 127.238 183.658 131.042C183.658 136.62 185.874 141.969 189.818 145.913C193.762 149.857 199.111 152.074 204.689 152.074H204.689C207.454 152.074 210.191 151.528 212.746 150.469C215.3 149.41 217.62 147.858 219.574 145.902C221.528 143.946 223.078 141.624 224.134 139.068C225.19 136.513 225.733 133.775 225.73 131.01C225.728 128.422 225.727 126.631 225.727 126.521C225.726 119.596 227.527 112.791 230.953 106.774C234.38 100.757 239.313 95.7352 245.269 92.2033C251.225 88.6713 257.998 86.7506 264.921 86.63C271.844 86.5094 278.68 88.1932 284.755 91.5156C290.83 94.838 295.936 99.6847 299.57 105.579C303.204 111.473 305.241 118.212 305.48 125.132C305.72 132.052 304.154 138.915 300.937 145.047C297.719 151.178 292.961 156.367 287.13 160.101L287.138 160.11C287.138 160.11 257.204 179.381 248.078 205.817L248.085 205.819C246.481 211.234 245.668 216.854 245.671 222.502C245.671 224.824 245.808 245.14 246.072 261.629C246.164 267.318 248.489 272.743 252.546 276.733C256.602 280.724 262.065 282.959 267.755 282.958H267.755C270.614 282.958 273.445 282.392 276.085 281.294C278.724 280.196 281.121 278.586 283.136 276.558C285.152 274.53 286.746 272.124 287.828 269.477C288.91 266.831 289.458 263.996 289.44 261.137C289.349 246.036 289.299 228.453 289.299 227.177C289.299 210.944 304.959 194.771 317.822 184.223C332.634 172.078 343.293 155.527 347.574 136.857C348.521 133.013 349.044 129.076 349.132 125.118C349.132 114.203 346.972 103.395 342.776 93.3184C338.581 83.2413 332.433 74.0941 324.687 66.4036C316.94 58.7131 307.749 52.6314 297.642 48.5089C287.535 44.3864 276.712 42.3047 265.797 42.3835Z" fill="#F53A3A"/>
<path d="M525.706 371H0.742105C0.545661 370.999 0.357461 370.921 0.218754 370.782C0.0800474 370.643 0.00215149 370.454 0.00215149 370.258C0.00215149 370.061 0.0800474 369.873 0.218754 369.734C0.357461 369.595 0.545661 369.516 0.742105 369.516H525.706C525.903 369.516 526.092 369.594 526.231 369.733C526.37 369.872 526.448 370.061 526.448 370.258C526.448 370.455 526.37 370.643 526.231 370.783C526.092 370.922 525.903 371 525.706 371Z" fill="#3F3D56"/>
<path d="M391.684 170.146C402.01 170.146 410.382 161.775 410.382 151.449C410.382 141.122 402.01 132.751 391.684 132.751C381.358 132.751 372.986 141.122 372.986 151.449C372.986 161.775 381.358 170.146 391.684 170.146Z" fill="#3F3D56"/>
<path d="M357.133 362.815H349.492L345.857 333.343H357.135L357.133 362.815Z" fill="#A0616A"/>
<path d="M344.034 360.632H358.77V369.91H334.756C334.756 368.691 334.996 367.485 335.462 366.359C335.928 365.234 336.612 364.211 337.473 363.349C338.335 362.488 339.358 361.804 340.483 361.338C341.609 360.872 342.816 360.632 344.034 360.632Z" fill="#3F3D56"/>
<path d="M416.342 362.815H408.701L405.066 333.343H416.344L416.342 362.815Z" fill="#A0616A"/>
<path d="M403.243 360.632H417.98V369.91H393.965C393.965 368.691 394.205 367.485 394.671 366.359C395.138 365.234 395.821 364.211 396.683 363.349C397.544 362.488 398.567 361.804 399.693 361.338C400.818 360.872 402.025 360.632 403.243 360.632Z" fill="#3F3D56"/>
<path d="M388.843 170.255C397.297 170.255 404.15 163.402 404.15 154.947C404.15 146.493 397.297 139.64 388.843 139.64C380.388 139.64 373.535 146.493 373.535 154.947C373.535 163.402 380.388 170.255 388.843 170.255Z" fill="#A0616A"/>
<path d="M397.966 219.639L404.816 203.902C406.479 200.21 406.956 196.093 406.18 192.119C405.405 188.144 403.414 184.509 400.484 181.714C399.883 181.119 399.244 180.563 398.571 180.05C395.191 177.406 391.026 175.965 386.735 175.955C383.85 175.966 381.002 176.6 378.384 177.812C378.159 177.912 377.941 178.018 377.717 178.124C377.287 178.329 376.863 178.554 376.452 178.784C373.769 180.325 371.485 182.475 369.785 185.06C368.086 187.645 367.017 190.594 366.666 193.668L363.644 218.997C362.883 220.985 335.759 292.784 345.245 347.599C345.346 348.185 345.632 348.723 346.06 349.134C346.488 349.546 347.037 349.809 347.626 349.887L357.243 351.196C357.945 351.292 358.658 351.118 359.237 350.71C359.816 350.302 360.22 349.689 360.365 348.995L376.502 272.08C376.602 271.602 376.86 271.171 377.234 270.857C377.608 270.543 378.076 270.363 378.564 270.347C379.053 270.33 379.532 270.478 379.926 270.766C380.321 271.054 380.607 271.466 380.74 271.936L403.538 352.822C403.701 353.41 404.052 353.928 404.537 354.297C405.022 354.667 405.615 354.867 406.225 354.867C406.406 354.865 406.588 354.849 406.767 354.817L418.515 352.554C419.198 352.427 419.809 352.048 420.227 351.494C420.646 350.939 420.842 350.248 420.778 349.556C419.051 330.304 409.877 233.868 397.966 219.639Z" fill="#3F3D56"/>
<path d="M329.353 167.687C329.246 168.597 329.341 169.519 329.63 170.389C329.919 171.258 330.394 172.054 331.024 172.72C331.653 173.385 332.421 173.905 333.273 174.242C334.125 174.579 335.041 174.725 335.956 174.669L344.512 195.232L350.985 185.638L341.867 167.582C341.672 166.052 340.923 164.646 339.761 163.631C338.599 162.616 337.106 162.063 335.563 162.076C334.021 162.089 332.536 162.667 331.392 163.701C330.247 164.735 329.522 166.154 329.353 167.687L329.353 167.687Z" fill="#A0616A"/>
<path d="M387.994 240.344C388.904 240.235 389.778 239.928 390.557 239.445C391.335 238.961 391.998 238.313 392.499 237.546C392.999 236.779 393.326 235.911 393.455 235.004C393.584 234.097 393.513 233.172 393.246 232.296L411.249 219.183L400.41 215.125L384.976 228.198C383.533 228.744 382.341 229.8 381.624 231.167C380.908 232.533 380.718 234.115 381.09 235.612C381.462 237.109 382.371 238.417 383.643 239.29C384.915 240.162 386.463 240.537 387.994 240.344Z" fill="#A0616A"/>
<path d="M358.646 208.941C357.956 208.94 357.267 208.872 356.59 208.738C354.953 208.426 353.417 207.717 352.118 206.672C350.82 205.626 349.798 204.278 349.144 202.745L337.156 188.127C336.902 187.818 336.718 187.459 336.615 187.073C336.512 186.686 336.492 186.283 336.558 185.889C336.623 185.494 336.772 185.119 336.995 184.787C337.218 184.455 337.508 184.174 337.848 183.964L346.377 178.684C346.692 178.489 347.042 178.359 347.408 178.3C347.774 178.241 348.147 178.255 348.508 178.341C348.868 178.428 349.207 178.585 349.506 178.803C349.806 179.021 350.059 179.296 350.251 179.613L358.7 193.533L374.881 181.575C376.169 180.899 377.657 180.71 379.074 181.041C380.49 181.372 381.74 182.202 382.595 183.379C383.45 184.555 383.854 186.001 383.732 187.45C383.609 188.9 382.97 190.257 381.929 191.274L365.78 206.005C363.882 207.886 361.318 208.942 358.646 208.941Z" fill="#3F3D56"/>
<path d="M402.367 230.924C402.345 230.924 402.323 230.924 402.301 230.924C401.908 230.914 401.521 230.822 401.166 230.654C400.81 230.485 400.494 230.244 400.238 229.945L392.655 221.099C392.397 220.798 392.205 220.445 392.094 220.064C391.982 219.684 391.952 219.284 392.006 218.891C392.06 218.497 392.197 218.12 392.408 217.784C392.619 217.448 392.899 217.16 393.229 216.94L407.427 207.474L394.564 192.01C393.816 190.763 393.542 189.288 393.791 187.854C394.041 186.421 394.797 185.126 395.923 184.205C397.049 183.283 398.468 182.798 399.923 182.837C401.377 182.876 402.768 183.437 403.843 184.417L419.476 199.695C420.707 200.819 421.646 202.225 422.214 203.791C422.781 205.358 422.96 207.04 422.735 208.691C422.509 210.342 421.887 211.914 420.92 213.272C419.954 214.629 418.672 215.732 417.186 216.486L404.408 230.044C404.146 230.322 403.829 230.543 403.479 230.695C403.128 230.846 402.749 230.924 402.367 230.924Z" fill="#3F3D56"/>
<path d="M384.95 198.329C384.829 198.329 384.707 198.321 384.586 198.306C384.058 198.241 383.56 198.027 383.15 197.688C382.74 197.349 382.436 196.9 382.274 196.393L376.576 178.924C376.433 178.482 376.455 178.003 376.638 177.577C376.82 177.15 377.151 176.804 377.569 176.602L377.754 176.515C377.922 176.435 378.088 176.356 378.257 176.281C380.914 175.049 383.807 174.406 386.735 174.397C390.538 174.404 394.255 175.521 397.431 177.611C397.857 177.894 398.155 178.333 398.26 178.834C398.365 179.335 398.269 179.857 397.993 180.287L387.304 197.033C387.054 197.43 386.706 197.758 386.295 197.984C385.883 198.211 385.42 198.33 384.95 198.329Z" fill="#E6E6E6"/>
<path d="M406.425 143.101C409.804 143.101 412.544 140.362 412.544 136.983C412.544 133.604 409.804 130.865 406.425 130.865C403.046 130.865 400.307 133.604 400.307 136.983C400.307 140.362 403.046 143.101 406.425 143.101Z" fill="#3F3D56"/>
<path d="M385.451 130.258C381.154 130.258 377.032 131.965 373.993 135.004C370.954 138.043 369.247 142.165 369.247 146.462V153.318H377.679L381.712 146.462L382.922 153.318H408.512L401.656 146.462C401.656 142.165 399.949 138.043 396.91 135.004C393.871 131.965 389.749 130.258 385.451 130.258Z" fill="#3F3D56"/>
<path d="M409.57 132.792C410.247 130.676 411.647 128.867 413.526 127.682C415.405 126.497 417.641 126.012 419.842 126.313C423.741 126.965 426.824 130.099 428.66 133.6C430.497 137.1 431.346 141.018 432.58 144.773C433.815 148.529 435.566 152.304 438.684 154.735C441.801 157.166 446.585 157.826 449.647 155.325C449.297 157.931 448.137 160.361 446.33 162.272C444.523 164.183 442.162 165.477 439.579 165.972C436.997 166.467 434.324 166.137 431.939 165.03C429.554 163.922 427.577 162.093 426.289 159.801C424.673 156.926 424.256 153.558 423.777 150.295C423.298 147.033 422.676 143.658 420.747 140.984C418.818 138.31 415.208 136.563 412.144 137.781L409.57 132.792Z" fill="#3F3D56"/>
<path d="M210.627 142.126C205.049 142.126 199.7 139.909 195.756 135.965C191.812 132.021 189.596 126.672 189.596 121.094C189.595 117.29 189.598 114.381 189.604 113.967C189.781 100.937 193.063 88.1371 199.176 76.6289C189.132 90.3797 183.609 106.912 183.371 123.94C183.366 124.353 183.363 127.262 183.363 131.066C183.364 136.644 185.579 141.993 189.523 145.937C193.467 149.882 198.817 152.098 204.394 152.098C208.978 152.097 213.435 150.599 217.09 147.833C220.745 145.066 223.396 141.183 224.643 136.772C220.792 140.225 215.8 142.132 210.627 142.126Z" fill="#3F3D56"/>
<path d="M267.222 86.7006C273.671 87.0085 279.948 88.8769 285.515 92.1453C291.082 95.4136 295.773 99.9843 299.185 105.465C302.596 110.945 304.627 117.172 305.102 123.61C305.577 130.048 304.482 136.506 301.912 142.428C305.63 138.062 308.362 132.945 309.923 127.427C311.484 121.909 311.837 116.12 310.958 110.453C310.079 104.786 307.988 99.376 304.828 94.5907C301.668 89.8053 297.514 85.7576 292.648 82.7234C287.782 79.6892 282.319 77.7399 276.631 77.0085C270.943 76.277 265.165 76.7805 259.69 78.4847C254.214 80.1889 249.171 83.0536 244.903 86.8837C240.635 90.7138 237.243 95.419 234.959 100.679C238.907 96.0339 243.87 92.3579 249.464 89.9344C255.057 87.5108 261.133 86.4044 267.222 86.7006Z" fill="#3F3D56"/>
<path d="M273.693 273.01C268.003 273.011 262.54 270.776 258.484 266.785C254.427 262.795 252.102 257.37 252.01 251.681C251.746 235.192 251.609 214.876 251.609 212.554C251.606 206.906 252.419 201.287 254.024 195.871L254.016 195.869C254.964 193.151 256.108 190.505 257.44 187.953C253.351 193.403 250.096 199.432 247.783 205.841L247.791 205.843C246.186 211.259 245.373 216.878 245.377 222.526C245.377 224.848 245.513 245.164 245.777 261.653C245.87 267.342 248.195 272.767 252.251 276.757C256.308 280.748 261.77 282.983 267.46 282.982C272.152 282.981 276.717 281.459 280.47 278.644C284.224 275.83 286.963 271.874 288.278 267.37C284.291 271.006 279.088 273.017 273.693 273.01Z" fill="#3F3D56"/>
<path d="M78.8673 363.099L86.5078 363.099L90.1433 333.626L78.8655 333.627L78.8673 363.099Z" fill="#FFB8B8"/>
<path d="M101.244 370.193L77.23 370.194L77.2296 360.916L91.9658 360.916C94.4265 360.915 96.7865 361.893 98.5266 363.633C100.267 365.373 101.244 367.733 101.244 370.193L101.244 370.193Z" fill="#3F3D56"/>
<path d="M51.4441 363.099L59.0846 363.099L62.7201 333.626L51.4422 333.627L51.4441 363.099Z" fill="#FFB8B8"/>
<path d="M73.8213 370.193L49.8068 370.194L49.8064 360.916L64.5425 360.916C67.0033 360.915 69.3633 361.893 71.1034 363.633C72.8435 365.373 73.8211 367.733 73.8213 370.193L73.8213 370.193Z" fill="#3F3D56"/>
<path d="M58.1212 354.035L50.6577 353.642C50.2729 353.622 49.8959 353.526 49.5486 353.359C49.2012 353.192 48.8905 352.957 48.6344 352.669C48.3782 352.382 48.1818 352.046 48.0564 351.681C47.931 351.317 47.8792 350.931 47.9039 350.547L56.8243 251.782L97.9037 262.867L101.862 261.787L89.4847 349.22C89.3793 349.878 89.0527 350.48 88.5588 350.927C88.065 351.374 87.4334 351.639 86.7685 351.679L78.7229 352.054C78.3206 352.076 77.9181 352.015 77.5407 351.873C77.1633 351.732 76.8194 351.514 76.5305 351.233C76.2416 350.953 76.0142 350.615 75.8625 350.241C75.7109 349.868 75.6383 349.468 75.6494 349.065L77.1072 296.589C77.114 296.346 77.0297 296.11 76.8708 295.926C76.712 295.743 76.4902 295.625 76.2491 295.597C76.008 295.569 75.765 295.632 75.5682 295.774C75.3713 295.916 75.2348 296.127 75.1855 296.364L61.1268 351.717C60.9941 352.374 60.6377 352.964 60.1185 353.388C59.5992 353.811 58.9491 354.041 58.2791 354.039C58.2268 354.039 58.1742 354.038 58.1212 354.035Z" fill="#3F3D56"/>
<path d="M80.2391 170.971C88.6934 170.971 95.5469 164.118 95.5469 155.663C95.5469 147.209 88.6934 140.356 80.2391 140.356C71.7849 140.356 64.9313 147.209 64.9313 155.663C64.9313 164.118 71.7849 170.971 80.2391 170.971Z" fill="#FFB8B8"/>
<path d="M54.7527 200.637L56.4359 236.953L57.0443 250.165C57.0686 250.74 57.2639 251.295 57.6052 251.758C57.9465 252.222 58.4184 252.573 58.9604 252.767L98.4349 267.067C98.7538 267.185 99.0917 267.244 99.4318 267.241C99.8207 267.243 100.206 267.167 100.564 267.016C100.923 266.866 101.248 266.645 101.519 266.367C101.79 266.088 102.003 265.758 102.144 265.395C102.284 265.033 102.351 264.646 102.339 264.257L100.72 198.96C100.614 193.603 98.6418 188.451 95.144 184.392C91.6462 180.333 86.8417 177.621 81.559 176.724C81.1772 176.666 80.7887 176.608 80.4002 176.556C77.1245 176.149 73.7994 176.466 70.659 177.482C67.5185 178.499 64.639 180.191 62.223 182.44C59.7213 184.741 57.7555 187.564 56.4646 190.708C55.1738 193.852 54.5894 197.242 54.7527 200.637L54.7527 200.637Z" fill="#CCCCCC"/>
<path d="M117.292 259.82C116.358 259.53 115.505 259.027 114.801 258.349C114.097 257.671 113.561 256.837 113.235 255.915C112.91 254.994 112.805 254.008 112.929 253.039C113.052 252.069 113.4 251.141 113.946 250.33L100.559 232.53L112.111 231.815L123.052 248.828C124.223 249.734 125.038 251.023 125.354 252.469C125.67 253.916 125.466 255.427 124.779 256.738C124.092 258.05 122.965 259.077 121.596 259.641C120.227 260.204 118.703 260.268 117.292 259.82H117.292Z" fill="#FFB8B8"/>
<path d="M107.88 247.109C107.525 246.965 107.203 246.752 106.931 246.483C106.659 246.213 106.443 245.893 106.296 245.539L86.1287 197.49C85.733 196.549 85.5265 195.54 85.5211 194.519C85.5158 193.498 85.7115 192.487 86.0973 191.542C86.4831 190.597 87.0513 189.737 87.7694 189.012C88.4876 188.287 89.3416 187.711 90.2827 187.316C91.2237 186.921 92.2334 186.715 93.254 186.71C94.2746 186.706 95.2861 186.902 96.2307 187.289C97.1753 187.675 98.0344 188.244 98.759 188.963C99.4837 189.682 100.06 190.536 100.454 191.477L120.621 239.528C120.919 240.24 120.923 241.042 120.63 241.756C120.338 242.471 119.775 243.041 119.063 243.341L110.109 247.098C109.757 247.248 109.378 247.325 108.996 247.327C108.613 247.329 108.234 247.255 107.88 247.109L107.88 247.109Z" fill="#CCCCCC"/>
<path d="M75.3176 245.414L94.6879 208.325C95.0614 207.612 95.7027 207.076 96.4709 206.835C97.2391 206.593 98.0716 206.667 98.7857 207.039L126.902 221.723C127.615 222.096 128.151 222.738 128.392 223.506C128.633 224.274 128.56 225.107 128.188 225.821L108.817 262.91C108.444 263.623 107.803 264.159 107.034 264.4C106.266 264.641 105.434 264.568 104.72 264.196L76.6036 249.512C75.8903 249.138 75.3543 248.497 75.1132 247.729C74.8721 246.961 74.9456 246.128 75.3176 245.414Z" fill="#3F3D56"/>
<path d="M88.308 228.469C87.9636 227.554 87.4102 226.732 86.6918 226.069C85.9735 225.406 85.1101 224.92 84.1706 224.65C83.2311 224.38 82.2414 224.334 81.2807 224.514C80.3199 224.694 79.4146 225.097 78.6369 225.689L60.0774 213.377L60.0458 224.951L77.6751 234.868C78.6483 235.984 79.9832 236.721 81.4458 236.951C82.9084 237.181 84.4052 236.889 85.6737 236.125C86.9422 235.362 87.9015 234.176 88.3832 232.776C88.8648 231.376 88.8382 229.851 88.308 228.469Z" fill="#FFB8B8"/>
<path d="M64.8424 231.072L49.6744 219.057C48.0335 218.506 46.5508 217.565 45.3536 216.315C44.1565 215.065 43.2805 213.543 42.801 211.879C42.3215 210.216 42.2527 208.462 42.6006 206.766C42.9485 205.07 43.7027 203.485 44.7984 202.145L58.5706 184.095C59.5276 182.926 60.8736 182.14 62.3624 181.881C63.8513 181.622 65.3835 181.908 66.6792 182.686C67.9748 183.464 68.9472 184.682 69.4186 186.118C69.89 187.553 69.829 189.111 69.2467 190.505L58.3498 208.33L74.3637 215.926C74.7361 216.102 75.0667 216.356 75.3338 216.67C75.6009 216.984 75.7984 217.351 75.9132 217.747C76.0279 218.143 76.0574 218.558 75.9996 218.966C75.9418 219.374 75.798 219.765 75.5779 220.114L69.1136 230.344C68.8951 230.689 68.6065 230.985 68.2665 231.212C67.9265 231.438 67.5427 231.591 67.14 231.66C67.124 231.663 67.1079 231.665 67.0918 231.667C66.696 231.727 66.2922 231.705 65.9053 231.603C65.5184 231.5 65.1567 231.32 64.8424 231.072Z" fill="#CCCCCC"/>
<path d="M68.6722 165.914C68.6065 165.722 68.5857 165.517 68.6113 165.316C68.6369 165.114 68.7083 164.921 68.8199 164.752C68.9316 164.582 69.0806 164.44 69.2556 164.337C69.4305 164.234 69.6267 164.173 69.8292 164.157C70.2438 164.18 70.6495 164.286 71.0219 164.47C71.3942 164.653 71.7255 164.911 71.9957 165.226C72.5497 165.865 73.1946 166.418 73.9098 166.869C74.6503 167.243 75.6546 167.19 76.0767 166.478C76.4732 165.81 76.2015 164.915 75.9615 164.139C75.3509 162.164 75.0092 160.115 74.9457 158.049C74.8766 155.743 75.2019 153.336 76.4787 151.537C78.1265 149.216 81.073 148.335 83.8615 148.399C86.6499 148.462 89.3931 149.323 92.1552 149.867C93.1087 150.055 94.2295 150.151 94.8673 149.412C95.5454 148.626 95.2964 147.355 95.0079 146.294C94.2594 143.54 93.4654 140.694 91.7263 138.47C89.846 136.16 87.16 134.648 84.2094 134.238C81.3766 133.887 78.5009 134.214 75.8189 135.191C71.4492 136.568 67.6041 139.247 64.798 142.869C61.9053 146.72 60.6553 151.56 61.3214 156.331C61.9721 160.486 64.1739 164.24 67.4828 166.836L68.6722 165.914Z" fill="#3F3D56"/>
<path d="M262.551 363.221C258.479 361.447 254.874 358.751 252.022 355.345C249.169 351.94 247.148 347.918 246.116 343.597C245.084 339.276 245.071 334.775 246.077 330.448C247.083 326.121 249.08 322.088 251.912 318.665C248.629 321.062 245.893 324.131 243.886 327.666C241.879 331.202 240.647 335.124 240.272 339.172C239.896 343.22 240.386 347.301 241.709 351.145C243.032 354.99 245.157 358.509 247.943 361.469C250.73 364.429 254.114 366.762 257.872 368.315C261.629 369.867 265.674 370.602 269.737 370.472C273.801 370.341 277.79 369.348 281.44 367.558C285.09 365.768 288.318 363.222 290.909 360.089C286.867 363.043 282.123 364.886 277.148 365.436C272.172 365.985 267.14 365.221 262.551 363.221Z" fill="#3F3D56"/>
</svg>
